<svg width="45" height="44" viewBox="0 0 45 44" fill="none" xmlns="http://www.w3.org/2000/svg">
<rect x="0.5" width="44" height="44" rx="22" fill="#39342B" fill-opacity="0.5"/>
<path d="M30.45 31C28.3667 31 26.3083 30.5458 24.275 29.6375C22.2417 28.7292 20.3917 27.4417 18.725 25.775C17.0583 24.1083 15.7708 22.2583 14.8625 20.225C13.9542 18.1917 13.5 16.1333 13.5 14.05C13.5 13.75 13.6 13.5 13.8 13.3C14 13.1 14.25 13 14.55 13H18.6C18.8333 13 19.0417 13.0792 19.225 13.2375C19.4083 13.3958 19.5167 13.5833 19.55 13.8L20.2 17.3C20.2333 17.5667 20.225 17.7917 20.175 17.975C20.125 18.1583 20.0333 18.3167 19.9 18.45L17.475 20.9C17.8083 21.5167 18.2042 22.1125 18.6625 22.6875C19.1208 23.2625 19.625 23.8167 20.175 24.35C20.6917 24.8667 21.2333 25.3458 21.8 25.7875C22.3667 26.2292 22.9667 26.6333 23.6 27L25.95 24.65C26.1 24.5 26.2958 24.3875 26.5375 24.3125C26.7792 24.2375 27.0167 24.2167 27.25 24.25L30.7 24.95C30.9333 25.0167 31.125 25.1375 31.275 25.3125C31.425 25.4875 31.5 25.6833 31.5 25.9V29.95C31.5 30.25 31.4 30.5 31.2 30.7C31 30.9 30.75 31 30.45 31ZM16.525 19L18.175 17.35L17.75 15H15.525C15.6083 15.6833 15.725 16.3583 15.875 17.025C16.025 17.6917 16.2417 18.35 16.525 19ZM25.475 27.95C26.125 28.2333 26.7875 28.4583 27.4625 28.625C28.1375 28.7917 28.8167 28.9 29.5 28.95V26.75L27.15 26.275L25.475 27.95Z" fill="#E4C36C"/>
</svg>
