<svg width="40" height="41" viewBox="0 0 40 41" fill="none" xmlns="http://www.w3.org/2000/svg">
<g clip-path="url(#clip0_345_1232)">
<rect x="0.000976562" y="0.57959" width="40" height="40" rx="20" fill="#E4C36C"/>
<path d="M15.001 30.5796C14.451 30.5796 13.9801 30.3838 13.5885 29.9921C13.1968 29.6004 13.001 29.1296 13.001 28.5796C13.001 28.0296 13.1968 27.5588 13.5885 27.1671C13.9801 26.7754 14.451 26.5796 15.001 26.5796C15.551 26.5796 16.0218 26.7754 16.4135 27.1671C16.8051 27.5588 17.001 28.0296 17.001 28.5796C17.001 29.1296 16.8051 29.6004 16.4135 29.9921C16.0218 30.3838 15.551 30.5796 15.001 30.5796ZM25.001 30.5796C24.451 30.5796 23.9801 30.3838 23.5885 29.9921C23.1968 29.6004 23.001 29.1296 23.001 28.5796C23.001 28.0296 23.1968 27.5588 23.5885 27.1671C23.9801 26.7754 24.451 26.5796 25.001 26.5796C25.551 26.5796 26.0218 26.7754 26.4135 27.1671C26.8051 27.5588 27.001 28.0296 27.001 28.5796C27.001 29.1296 26.8051 29.6004 26.4135 29.9921C26.0218 30.3838 25.551 30.5796 25.001 30.5796ZM14.151 14.5796L16.551 19.5796H23.551L26.301 14.5796H14.151ZM13.201 12.5796H27.951C28.3343 12.5796 28.626 12.7504 28.826 13.0921C29.026 13.4338 29.0343 13.7796 28.851 14.1296L25.301 20.5296C25.1176 20.8629 24.8718 21.1213 24.5635 21.3046C24.2551 21.4879 23.9176 21.5796 23.551 21.5796H16.101L15.001 23.5796H27.001V25.5796H15.001C14.251 25.5796 13.6843 25.2504 13.301 24.5921C12.9176 23.9338 12.901 23.2796 13.251 22.6296L14.601 20.1796L11.001 12.5796H9.00098V10.5796H12.251L13.201 12.5796Z" fill="#3D2E00"/>
</g>
<defs>
<clipPath id="clip0_345_1232">
<rect x="0.000976562" y="0.57959" width="40" height="40" rx="20" fill="white"/>
</clipPath>
</defs>
</svg>
