<svg width="45" height="44" viewBox="0 0 45 44" fill="none" xmlns="http://www.w3.org/2000/svg">
<rect x="0.5" width="44" height="44" rx="22" fill="#39342B" fill-opacity="0.5"/>
<path d="M16.5 30C15.6667 30 14.9583 29.7083 14.375 29.125C13.7917 28.5417 13.5 27.8333 13.5 27H11.5V16C11.5 15.45 11.6958 14.9792 12.0875 14.5875C12.4792 14.1958 12.95 14 13.5 14H27.5V18H30.5L33.5 22V27H31.5C31.5 27.8333 31.2083 28.5417 30.625 29.125C30.0417 29.7083 29.3333 30 28.5 30C27.6667 30 26.9583 29.7083 26.375 29.125C25.7917 28.5417 25.5 27.8333 25.5 27H19.5C19.5 27.8333 19.2083 28.5417 18.625 29.125C18.0417 29.7083 17.3333 30 16.5 30ZM16.5 28C16.7833 28 17.0208 27.9042 17.2125 27.7125C17.4042 27.5208 17.5 27.2833 17.5 27C17.5 26.7167 17.4042 26.4792 17.2125 26.2875C17.0208 26.0958 16.7833 26 16.5 26C16.2167 26 15.9792 26.0958 15.7875 26.2875C15.5958 26.4792 15.5 26.7167 15.5 27C15.5 27.2833 15.5958 27.5208 15.7875 27.7125C15.9792 27.9042 16.2167 28 16.5 28ZM13.5 25H14.3C14.5833 24.7 14.9083 24.4583 15.275 24.275C15.6417 24.0917 16.05 24 16.5 24C16.95 24 17.3583 24.0917 17.725 24.275C18.0917 24.4583 18.4167 24.7 18.7 25H25.5V16H13.5V25ZM28.5 28C28.7833 28 29.0208 27.9042 29.2125 27.7125C29.4042 27.5208 29.5 27.2833 29.5 27C29.5 26.7167 29.4042 26.4792 29.2125 26.2875C29.0208 26.0958 28.7833 26 28.5 26C28.2167 26 27.9792 26.0958 27.7875 26.2875C27.5958 26.4792 27.5 26.7167 27.5 27C27.5 27.2833 27.5958 27.5208 27.7875 27.7125C27.9792 27.9042 28.2167 28 28.5 28ZM27.5 23H31.75L29.5 20H27.5V23Z" fill="#E4C36C"/>
</svg>
