<svg width="40" height="40" viewBox="0 0 40 40" fill="none" xmlns="http://www.w3.org/2000/svg">
<path d="M13.874 3.01345C13.8725 3.0166 13.8716 3.02 13.8701 3.0232C13.8642 3.0198 13.8579 3.01635 13.852 3.0132C13.0532 2.57275 12.227 2.11745 11.2793 2.11745C10.8022 2.11745 10.3418 2.24025 9.94774 2.47265C8.54054 3.3059 8.52394 4.95335 8.51169 6.15625C8.51169 6.16555 8.51169 6.1748 8.51169 6.18455C8.50684 6.1836 8.50194 6.18285 8.49704 6.18215C8.00829 6.1074 7.50244 6.0298 6.99364 6.0298C5.97119 6.0298 5.17869 6.36305 4.63864 7.0198C3.60594 8.27295 4.1455 9.82275 4.53904 10.9543C4.54394 10.9673 4.54834 10.9807 4.55319 10.9944C4.54784 10.9956 4.5425 10.9966 4.53709 10.9975C3.35694 11.2334 1.74024 11.5564 1.1875 13.105C0.643542 14.6323 1.67139 15.9004 2.42234 16.8262C2.43259 16.8393 2.44384 16.8528 2.45509 16.8667C2.45114 16.8689 2.44774 16.8711 2.44434 16.8733C1.41259 17.4986 0 18.355 0 20C0 21.645 1.41259 22.5014 2.44434 23.1267C2.44774 23.1289 2.45164 23.1311 2.45509 23.1335C2.44384 23.1474 2.43259 23.1614 2.42189 23.1748C1.67139 24.1008 0.643043 25.3691 1.1875 26.895C1.74024 28.4441 3.35694 28.7671 4.53709 29.0029C4.5425 29.0039 4.54784 29.0049 4.55319 29.0059C4.54834 29.0196 4.54344 29.033 4.53904 29.0459C4.145 30.1772 3.60544 31.7268 4.63914 32.9819C5.17869 33.6377 5.97119 33.9705 6.99314 33.9705C7.50244 33.9705 8.00829 33.8928 8.49704 33.8178C8.50194 33.8172 8.50684 33.8164 8.51124 33.8157C8.51169 33.8257 8.51169 33.8354 8.51169 33.845C8.52394 35.0484 8.54054 36.6963 9.94629 37.5269C10.3418 37.7603 10.8027 37.8833 11.2798 37.8833C12.2275 37.8833 13.0537 37.4277 13.8525 36.987C13.8584 36.9839 13.8642 36.9807 13.8701 36.9776C13.8716 36.9807 13.8725 36.9839 13.874 36.987C14.3012 38.1197 14.8867 39.6712 16.5078 39.9609C16.6528 39.9868 16.8017 40 16.9497 40C18.3261 40 19.2344 38.9487 19.9643 38.104C19.9756 38.0908 19.9878 38.0771 19.9995 38.063C20.0117 38.0771 20.0239 38.091 20.0356 38.1045C20.7651 38.949 21.6738 40 23.0498 40C23.1977 40 23.3467 39.9868 23.4922 39.9609C25.1128 39.6712 25.6987 38.1194 26.1264 36.9864C26.1274 36.9834 26.1284 36.9804 26.1299 36.9776C26.1357 36.9809 26.1416 36.9841 26.1474 36.9875C26.9463 37.428 27.7724 37.8833 28.7197 37.8833C29.1972 37.8833 29.6582 37.76 30.0527 37.5269C31.4585 36.6965 31.4756 35.0481 31.4878 33.8445C31.4883 33.8349 31.4883 33.8255 31.4883 33.8157C31.4931 33.8164 31.4975 33.8172 31.5024 33.8178C31.9917 33.8931 32.497 33.9705 33.0063 33.9705C34.0283 33.9705 34.8208 33.6377 35.3608 32.9812C36.394 31.7273 35.8545 30.1775 35.4604 29.0459C35.456 29.033 35.4516 29.0196 35.4468 29.0059C35.4521 29.0049 35.457 29.0039 35.4624 29.0029C36.6426 28.7671 38.2588 28.4441 38.812 26.8965C39.3569 25.3691 38.3286 24.1006 37.5781 23.1743C37.5674 23.1612 37.5561 23.1474 37.5449 23.1335C37.5483 23.1314 37.5517 23.1292 37.5556 23.1269C38.5869 22.5014 40 21.645 40 20C40 18.355 38.5869 17.4986 37.5556 16.8731C37.5517 16.8708 37.5483 16.8689 37.5449 16.8667C37.5561 16.8531 37.5669 16.8396 37.5776 16.8264C38.3281 15.9007 39.3564 14.6325 38.8125 13.1059C38.2588 11.5564 36.6426 11.2334 35.4624 10.9975C35.4575 10.9966 35.4521 10.9956 35.4468 10.9946C35.4516 10.9809 35.456 10.9678 35.4609 10.9548C35.855 9.82275 36.395 8.2722 35.3589 7.0171C34.8198 6.36255 34.0278 6.0298 33.0058 6.0298C32.497 6.03005 31.9912 6.1074 31.5024 6.18235C31.4975 6.1831 31.4931 6.1836 31.4883 6.18435C31.4883 6.1748 31.4883 6.16505 31.4883 6.15575C31.4756 4.95315 31.459 3.30615 30.0556 2.4746C29.6582 2.24025 29.1977 2.11745 28.7207 2.11745C27.7729 2.11745 26.9468 2.57275 26.1479 3.0132C26.1416 3.01635 26.1357 3.0198 26.1299 3.02295C26.1284 3.02 26.1274 3.0171 26.1264 3.01415C25.6987 1.88085 25.1128 0.32885 23.4917 0.0390501C23.3462 0.0131998 23.1977 0 23.0498 0C21.6738 0 20.7656 1.05125 20.0356 1.896C20.0239 1.9094 20.0117 1.9231 19.9995 1.93725C19.9878 1.92335 19.9756 1.90965 19.9643 1.89625C19.2344 1.05125 18.3257 0 16.9497 0C16.8017 0 16.6533 0.0129499 16.5088 0.0388002C14.8867 0.32885 14.3012 1.8806 13.874 3.01345ZM16.166 19.1587C16.56 18.9123 17.0058 18.6255 17.2182 18.4773C17.3135 18.3106 19.7666 14.2544 19.9175 13.6164V12.799C19.9175 12.6526 19.9096 12.5025 19.9023 12.3515C19.8633 11.5352 19.8091 10.4167 20.7705 9.6052C21.2051 9.2378 21.7055 9.02955 22.2168 9.00295C22.6157 8.98265 23.0298 9.06835 23.4341 9.25805C25.166 10.0696 25.4267 12.6035 25.5381 13.6856C25.5859 14.1389 25.2759 15.718 24.9468 16.968L29.1333 16.9724C30.4653 16.9724 31.4375 17.8406 31.4961 19.0837C31.5366 19.9592 31.2339 20.513 30.9497 20.8352C31.1328 21.1333 31.2422 21.4756 31.2422 21.854C31.2422 22.5728 30.9219 23.2175 30.417 23.6529C30.5405 23.9409 30.6089 24.2585 30.6089 24.5923C30.6089 25.3845 30.2197 26.0874 29.623 26.5181C29.7148 26.7715 29.7646 27.0449 29.7646 27.3301C29.7646 28.6377 28.7041 29.7014 27.4004 29.7014L19.1274 29.6982C19.0356 29.6982 18.9438 29.6856 18.8554 29.6604C18.4428 29.5434 18.1245 29.3276 17.8686 29.154C17.7451 29.07 17.6274 28.9902 17.5346 28.9468C17.4458 28.947 17.3769 28.9546 17.3086 28.9607C16.9795 28.9897 16.6811 28.9832 16.4189 28.9156C16.1474 29.1626 15.812 29.3386 15.4448 29.3891C15.4448 29.3891 10.9629 30 10.8916 30C10.1084 30 9.5 29.4053 9.5 28.5913V19.5252C9.5 18.7234 10.0888 18.1477 10.853 18.1477C10.9345 18.1477 13.0029 18.4717 13.0044 18.4717C13.1054 18.4717 15.4497 18.8652 15.4497 18.8652C15.708 18.9065 15.9492 19.0135 16.166 19.1587Z" fill="#E4C36C"/>
<path d="M18.9907 27.499C19.106 27.5771 19.2168 27.6524 19.3076 27.6982L19.7236 27.6985C19.749 27.6985 19.7749 27.6995 19.7998 27.7014L24.7476 27.7043C24.773 27.7024 24.7983 27.7014 24.8237 27.7014H27.3994C27.6001 27.7014 27.7637 27.5349 27.7637 27.3301C27.7637 27.1325 27.6113 26.971 27.417 26.9624C27.3486 26.9594 27.2827 26.9495 27.2188 26.9336H26.3765C25.8242 26.9336 25.3765 26.4859 25.3765 25.9336C25.3765 25.3814 25.8242 24.9336 26.3765 24.9336H27.9995C28.0796 24.9336 28.1567 24.9455 28.2314 24.9634H28.2446C28.4448 24.9634 28.6079 24.7969 28.6079 24.5923C28.6079 24.3943 28.4551 24.2329 28.2603 24.2243C28.1572 24.22 28.0605 24.1958 27.9678 24.1626H26.5513C25.999 24.1626 25.5513 23.7149 25.5513 23.1626C25.5513 22.6104 25.999 22.1626 26.5513 22.1626H29.0674C29.1694 22.0967 29.2412 21.9861 29.2412 21.854C29.21 21.8015 28.9541 21.6125 28.6587 21.5642H26.5513C25.999 21.5642 25.5513 21.1165 25.5513 20.5642C25.5513 20.012 25.999 19.5642 26.5513 19.5642H29.3355C29.3955 19.5481 29.4336 19.5283 29.4482 19.5132C29.4653 19.4951 29.5073 19.3999 29.4971 19.1775C29.4932 19.091 29.4873 18.9724 29.1313 18.9724L23.5918 18.9666C23.2153 18.966 22.8711 18.7544 22.7007 18.4184C22.5503 18.1216 22.5586 17.7722 22.7163 17.4853C22.9136 16.9858 23.5513 14.3787 23.5459 13.8628C23.3359 11.8323 22.9067 11.2199 22.584 11.0688C22.4893 11.0244 22.4004 11 22.3335 11C22.25 11.0039 22.1558 11.0522 22.0601 11.1331C21.874 11.2903 21.8682 11.6111 21.8994 12.2551C21.9082 12.4385 21.9165 12.6211 21.9165 12.799V13.6653C21.9165 14.3531 21.3335 15.5268 19.4209 18.6885C19.2031 19.0488 18.9561 19.4573 18.9087 19.5511C18.8047 19.7847 18.7603 19.8845 17.6172 20.6089V26.9475C17.8296 26.9553 18.02 26.9912 18.1963 27.0572C18.5186 27.1785 18.7695 27.3489 18.9907 27.499Z" fill="#E4C36C"/>
<path d="M12.0044 21.6919V20.3379L11.5 20.2568V27.9126L15.0542 27.424V20.8274L14.0044 20.6589V21.6919C14.0044 22.2441 13.5566 22.6919 13.0044 22.6919C12.4521 22.6919 12.0044 22.2441 12.0044 21.6919Z" fill="#E4C36C"/>
</svg>
