<svg width="48" height="48" viewBox="0 0 48 48" fill="none" xmlns="http://www.w3.org/2000/svg">
<path fill-rule="evenodd" clip-rule="evenodd" d="M14 19.522C14 16.4772 16.4772 14 19.522 14H28.478C31.5229 14 34 16.4772 34 19.522V28.478C34 31.5229 31.5229 34 28.478 34H19.522C16.4772 34 14 31.5229 14 28.478V19.522ZM20.0291 24C20.0291 26.1895 21.8105 27.9709 24 27.9709C26.1895 27.9709 27.9709 26.1895 27.9709 24C27.9709 21.8105 26.1895 20.0291 24 20.0291C21.8105 20.0291 20.0291 21.8105 20.0291 24ZM18.7421 24C18.7421 21.1007 21.1007 18.7421 24 18.7421C26.8993 18.7421 29.2579 21.1007 29.2579 24C29.2579 26.8993 26.8993 29.2579 24 29.2579C21.1007 29.2579 18.7421 26.8993 18.7421 24ZM30.4048 16.1209C31.167 16.1209 31.7848 16.7388 31.7848 17.501C31.7848 18.2632 31.167 18.8811 30.4048 18.8811C29.6426 18.8811 29.0247 18.2632 29.0247 17.501C29.0247 16.7388 29.6426 16.1209 30.4048 16.1209Z" fill="#EAE1D4"/>
</svg>
