<svg width="40" height="40" viewBox="0 0 40 40" fill="none" xmlns="http://www.w3.org/2000/svg">
<path fill-rule="evenodd" clip-rule="evenodd" d="M0 8.09103C0 4.96755 4.09884 3.7734 5.7682 6.42486L9.99866 13.1421L17.356 1.46427C18.5863 -0.48809 21.4153 -0.48809 22.6441 1.46427L29.9998 13.1438L34.2302 6.42655C35.8997 3.77513 40.0001 4.96928 40.0001 8.09271V26.7873C40.0001 29.3696 37.8948 31.475 35.3124 31.475L4.68816 31.4733C2.10584 31.4733 0.000421037 29.368 0.000421037 26.7856L0 8.09103ZM35.3136 36.2499C36.3498 36.2499 37.1887 37.0887 37.1887 38.1249C37.1887 39.1612 36.3498 40 35.3136 40H4.68774C3.65154 40 2.81269 39.1612 2.81269 38.1249C2.81269 37.0887 3.65154 36.2499 4.68774 36.2499H35.3136Z" fill="#E4C36C"/>
</svg>
