<svg width="32" height="40" viewBox="0 0 32 40" fill="none" xmlns="http://www.w3.org/2000/svg">
<path d="M30.3579 7.03158C25.7263 6.65263 21.3895 4.67368 18.1053 1.38947L17.2632 0.505263C16.9263 0.168421 16.4632 0 16 0C15.5368 0 15.0737 0.168421 14.7368 0.505263L13.8947 1.38947C10.6105 4.67368 6.27368 6.65263 1.64211 7.03158C0.715789 7.11579 0 7.87368 0 8.8V13.8947C0 24.5895 5.81053 34.5263 15.1158 39.7895C15.3684 39.9579 15.7053 40 16 40C16.2947 40 16.5895 39.9158 16.8842 39.7895C26.1895 34.5263 32 24.5895 32 13.8947V8.8C32 7.87368 31.2842 7.11579 30.3579 7.03158ZM23.7053 16.5895L15.8316 25.1368C15.4947 25.4737 15.0316 25.6842 14.5684 25.7263H14.5263C14.0632 25.7263 13.6 25.5579 13.2632 25.2211L8.8421 20.7158C8.16842 20.0421 8.16842 18.9053 8.8421 18.2316C9.51579 17.5579 10.6526 17.5579 11.3263 18.2316L14.4842 21.3895L21.0947 14.1895C21.7684 13.4737 22.8632 13.4316 23.5789 14.0632C24.2947 14.7368 24.3368 15.8737 23.7053 16.5895Z" fill="#E4C36C"/>
</svg>
