<svg width="40" height="40" viewBox="0 0 40 40" fill="none" xmlns="http://www.w3.org/2000/svg">
<path fill-rule="evenodd" clip-rule="evenodd" d="M6.2249 26.3694C5.58367 26.3694 5.05945 26.8937 5.05945 27.5348C5.05945 28.1761 5.58372 28.7003 6.2249 28.7003H7.40012C7.27149 27.9012 7.40987 27.0807 7.79966 26.3713L6.2249 26.3694Z" fill="#E4C36C"/>
<path fill-rule="evenodd" clip-rule="evenodd" d="M38.8346 26.3694H37.2599C37.6496 27.0788 37.788 27.9012 37.6594 28.6984H38.8346C39.4758 28.6984 40.0001 28.1741 40.0001 27.5329C40.0001 26.8937 39.4757 26.3694 38.8346 26.3694Z" fill="#E4C36C"/>
<path fill-rule="evenodd" clip-rule="evenodd" d="M14.161 26.3694C14.5508 27.0788 14.6892 27.9012 14.5605 28.6984H30.5008C30.3722 27.8993 30.5106 27.0788 30.9004 26.3694H14.161Z" fill="#E4C36C"/>
<path fill-rule="evenodd" clip-rule="evenodd" d="M34.0792 25.2758C32.5122 25.2758 31.2415 26.5465 31.2415 28.1134C31.2415 29.6803 32.5122 30.9511 34.0792 30.9511C35.6461 30.9511 36.9168 29.6803 36.9168 28.1134C36.9168 26.5465 35.6461 25.2758 34.0792 25.2758ZM34.0792 29.0684C33.553 29.0684 33.1242 28.6416 33.1242 28.1134C33.1242 27.5872 33.551 27.1584 34.0792 27.1584C34.6054 27.1584 35.0342 27.5852 35.0342 28.1134C35.0342 28.6396 34.6074 29.0684 34.0792 29.0684Z" fill="#E4C36C"/>
<path fill-rule="evenodd" clip-rule="evenodd" d="M10.9803 25.2758C9.41339 25.2758 8.14267 26.5465 8.14267 28.1134C8.14267 29.6803 9.41339 30.9511 10.9803 30.9511C12.5473 30.9511 13.818 29.6803 13.818 28.1134C13.818 26.5465 12.5473 25.2758 10.9803 25.2758ZM10.9803 29.0684C10.4541 29.0684 10.0253 28.6416 10.0253 28.1134C10.0253 27.5872 10.4521 27.1584 10.9803 27.1584C11.5065 27.1584 11.9353 27.5852 11.9353 28.1134C11.9353 28.6396 11.5085 29.0684 10.9803 29.0684Z" fill="#E4C36C"/>
<path fill-rule="evenodd" clip-rule="evenodd" d="M9.96116 13.3658C9.96116 14.0557 9.40181 14.6151 8.71189 14.6151H6.64019V15.6558H10.9824C11.6723 15.6558 12.2317 16.2152 12.2317 16.9051C12.2317 17.595 11.6723 18.1543 10.9824 18.1543L6.63824 18.1563V19.197H8.70994C9.39986 19.197 9.95921 19.7564 9.95921 20.4463C9.95921 21.1362 9.39986 21.6955 8.70994 21.6955H6.63824V25.5798H8.38644C9.04517 24.9054 9.96315 24.4864 10.9805 24.4864C11.9978 24.4864 12.9158 24.9055 13.5745 25.5798H29.0139V10.5496C29.0139 9.63164 28.4584 9.04889 27.5132 9.04889H8.13877C7.19355 9.04889 6.63809 9.63164 6.63809 10.5496V12.1165H8.70979C9.40166 12.1165 9.96116 12.6759 9.96116 13.3658Z" fill="#E4C36C"/>
<path fill-rule="evenodd" clip-rule="evenodd" d="M34.0794 24.4864C35.0967 24.4864 36.0147 24.9055 36.6734 25.5798H38.8347V21.4052H31.2415C30.9882 21.4052 30.7816 21.1986 30.7816 20.9452C30.7816 20.6918 30.9882 20.4853 31.2415 20.4853H38.7878C38.7391 20.2533 38.6514 20.0351 38.5189 19.8168L35.88 15.4473C35.4727 14.7729 34.7983 14.3929 34.011 14.3929H29.9338V25.5819H31.4832C32.1439 24.9056 33.064 24.4864 34.0794 24.4864ZM30.8363 22.6155C30.8363 22.3621 31.0429 22.1555 31.2963 22.1555H31.7718C32.0252 22.1555 32.2318 22.3621 32.2318 22.6155C32.2318 22.8688 32.0252 23.0754 31.7718 23.0754H31.2963C31.041 23.0754 30.8363 22.8688 30.8363 22.6155Z" fill="#E4C36C"/>
<path fill-rule="evenodd" clip-rule="evenodd" d="M9.17169 13.3658C9.17169 13.1124 8.9651 12.9058 8.71174 12.9058H0.459952C0.206591 12.9058 0 13.1124 0 13.3658C0 13.6191 0.206586 13.8257 0.459952 13.8257H8.71174C8.9651 13.8277 9.17169 13.6211 9.17169 13.3658Z" fill="#E4C36C"/>
<path fill-rule="evenodd" clip-rule="evenodd" d="M11.4423 16.9052C11.4423 16.6518 11.2357 16.4453 10.9823 16.4453H3.82967C3.57631 16.4453 3.36972 16.6518 3.36972 16.9052C3.36972 17.1586 3.57631 17.3652 3.82967 17.3652H10.9803C11.2356 17.3671 11.4423 17.1605 11.4423 16.9052Z" fill="#E4C36C"/>
<path fill-rule="evenodd" clip-rule="evenodd" d="M9.17154 20.4446C9.17154 20.1912 8.96495 19.9846 8.71159 19.9846H1.46365C1.21028 19.9846 1.00369 20.1912 1.00369 20.4446C1.00369 20.6979 1.21028 20.9045 1.46365 20.9045H8.71159C8.96495 20.9065 9.17154 20.6999 9.17154 20.4446Z" fill="#E4C36C"/>
</svg>
