<svg width="45" height="44" viewBox="0 0 45 44" fill="none" xmlns="http://www.w3.org/2000/svg">
<rect x="0.5" width="44" height="44" rx="22" fill="#39342B" fill-opacity="0.5"/>
<path d="M17.5 32C16.95 32 16.4792 31.8042 16.0875 31.4125C15.6958 31.0208 15.5 30.55 15.5 30C15.5 29.45 15.6958 28.9792 16.0875 28.5875C16.4792 28.1958 16.95 28 17.5 28C18.05 28 18.5208 28.1958 18.9125 28.5875C19.3042 28.9792 19.5 29.45 19.5 30C19.5 30.55 19.3042 31.0208 18.9125 31.4125C18.5208 31.8042 18.05 32 17.5 32ZM27.5 32C26.95 32 26.4792 31.8042 26.0875 31.4125C25.6958 31.0208 25.5 30.55 25.5 30C25.5 29.45 25.6958 28.9792 26.0875 28.5875C26.4792 28.1958 26.95 28 27.5 28C28.05 28 28.5208 28.1958 28.9125 28.5875C29.3042 28.9792 29.5 29.45 29.5 30C29.5 30.55 29.3042 31.0208 28.9125 31.4125C28.5208 31.8042 28.05 32 27.5 32ZM16.65 16L19.05 21H26.05L28.8 16H16.65ZM15.7 14H30.45C30.8333 14 31.125 14.1708 31.325 14.5125C31.525 14.8542 31.5333 15.2 31.35 15.55L27.8 21.95C27.6167 22.2833 27.3708 22.5417 27.0625 22.725C26.7542 22.9083 26.4167 23 26.05 23H18.6L17.5 25H29.5V27H17.5C16.75 27 16.1833 26.6708 15.8 26.0125C15.4167 25.3542 15.4 24.7 15.75 24.05L17.1 21.6L13.5 14H11.5V12H14.75L15.7 14Z" fill="#E4C36C"/>
</svg>
