<svg width="171" height="28" viewBox="0 0 171 28" fill="none" xmlns="http://www.w3.org/2000/svg">
<path d="M12.1342 21.2125L17.7755 24.7872C18.503 25.2452 19.3985 24.5638 19.1858 23.726L17.5516 17.314C17.5074 17.1363 17.5144 16.9497 17.5719 16.7758C17.6293 16.6018 17.7348 16.4477 17.8762 16.331L22.9355 12.1196C23.5959 11.5723 23.2601 10.4664 22.3982 10.4105L15.7943 9.98601C15.6141 9.97555 15.4409 9.91293 15.2958 9.80581C15.1506 9.69868 15.04 9.55169 14.9772 9.3828L12.5147 3.19424C12.4495 3.0154 12.3308 2.86091 12.1746 2.75174C12.0184 2.64257 11.8323 2.58401 11.6417 2.58401C11.451 2.58401 11.2649 2.64257 11.1087 2.75174C10.9525 2.86091 10.8338 3.0154 10.7686 3.19424L8.30612 9.3828C8.24336 9.55169 8.13267 9.69868 7.98756 9.80581C7.84245 9.91293 7.66922 9.97555 7.48903 9.98601L0.885122 10.4105C0.0232557 10.4664 -0.312536 11.5723 0.347855 12.1196L5.40712 16.331C5.54853 16.4477 5.65402 16.6018 5.71145 16.7758C5.76888 16.9497 5.77591 17.1363 5.73172 17.314L4.22066 23.2568C3.96322 24.2621 5.03775 25.0776 5.89962 24.5302L11.1492 21.2125C11.2964 21.1191 11.4672 21.0695 11.6417 21.0695C11.8161 21.0695 11.9869 21.1191 12.1342 21.2125Z" fill="#FFA43C"/>
<path d="M48.3802 21.2125L54.0216 24.7872C54.7491 25.2452 55.6445 24.5638 55.4319 23.726L53.7977 17.314C53.7535 17.1363 53.7605 16.9497 53.818 16.7758C53.8754 16.6018 53.9809 16.4477 54.1223 16.331L59.1816 12.1196C59.8419 11.5723 59.5062 10.4664 58.6443 10.4105L52.0404 9.98601C51.8602 9.97555 51.687 9.91293 51.5419 9.80581C51.3967 9.69868 51.286 9.55169 51.2233 9.3828L48.7608 3.19424C48.6956 3.0154 48.5769 2.86091 48.4207 2.75174C48.2645 2.64257 48.0784 2.58401 47.8878 2.58401C47.6971 2.58401 47.511 2.64257 47.3548 2.75174C47.1986 2.86091 47.0799 3.0154 47.0147 3.19424L44.5522 9.3828C44.4895 9.55169 44.3788 9.69868 44.2337 9.80581C44.0885 9.91293 43.9153 9.97555 43.7351 9.98601L37.1312 10.4105C36.2693 10.4664 35.9336 11.5723 36.5939 12.1196L41.6532 16.331C41.7946 16.4477 41.9001 16.6018 41.9575 16.7758C42.015 16.9497 42.022 17.1363 41.9778 17.314L40.4667 23.2568C40.2093 24.2621 41.2838 25.0776 42.1457 24.5302L47.3953 21.2125C47.5425 21.1191 47.7133 21.0695 47.8878 21.0695C48.0622 21.0695 48.233 21.1191 48.3802 21.2125Z" fill="#FFA43C"/>
<path d="M84.6254 21.2125L90.2667 24.7871C90.9942 25.2451 91.8897 24.5637 91.677 23.7259L90.0428 17.314C89.9986 17.1362 90.0057 16.9496 90.0631 16.7757C90.1205 16.6018 90.226 16.4476 90.3674 16.3309L95.4267 12.1196C96.0871 11.5722 95.7513 10.4663 94.8894 10.4105L88.2855 9.98598C88.1053 9.97552 87.9321 9.9129 87.787 9.80578C87.6419 9.69865 87.5312 9.55166 87.4684 9.38277L85.006 3.19421C84.9408 3.01537 84.822 2.86088 84.6658 2.75171C84.5096 2.64254 84.3236 2.58398 84.1329 2.58398C83.9422 2.58398 83.7561 2.64254 83.6 2.75171C83.4438 2.86088 83.325 3.01537 83.2598 3.19421L80.7974 9.38277C80.7346 9.55166 80.6239 9.69865 80.4788 9.80578C80.3337 9.9129 80.1605 9.97552 79.9803 9.98598L73.3764 10.4105C72.5145 10.4663 72.1787 11.5722 72.8391 12.1196L77.8984 16.3309C78.0398 16.4476 78.1453 16.6018 78.2027 16.7757C78.2601 16.9496 78.2671 17.1362 78.223 17.314L76.7119 23.2568C76.4545 24.2621 77.529 25.0776 78.3909 24.5302L83.6404 21.2125C83.7876 21.1191 83.9585 21.0695 84.1329 21.0695C84.3073 21.0695 84.4782 21.1191 84.6254 21.2125Z" fill="#FFA43C"/>
<path d="M120.871 21.2125L126.513 24.7872C127.24 25.2452 128.136 24.5638 127.923 23.726L126.289 17.314C126.245 17.1363 126.252 16.9497 126.309 16.7758C126.367 16.6018 126.472 16.4477 126.613 16.331L131.673 12.1196C132.333 11.5723 131.997 10.4664 131.135 10.4105L124.532 9.98601C124.351 9.97555 124.178 9.91293 124.033 9.80581C123.888 9.69868 123.777 9.55169 123.714 9.3828L121.252 3.19424C121.187 3.0154 121.068 2.86091 120.912 2.75174C120.756 2.64257 120.57 2.58401 120.379 2.58401C120.188 2.58401 120.002 2.64257 119.846 2.75174C119.69 2.86091 119.571 3.0154 119.506 3.19424L117.043 9.3828C116.981 9.55169 116.87 9.69868 116.725 9.80581C116.58 9.91293 116.407 9.97555 116.226 9.98601L109.622 10.4105C108.761 10.4664 108.425 11.5723 109.085 12.1196L114.144 16.331C114.286 16.4477 114.391 16.6018 114.449 16.7758C114.506 16.9497 114.513 17.1363 114.469 17.314L112.958 23.2568C112.701 24.2621 113.775 25.0776 114.637 24.5302L119.886 21.2125C120.034 21.1191 120.205 21.0695 120.379 21.0695C120.553 21.0695 120.724 21.1191 120.871 21.2125Z" fill="#FFA43C"/>
<path d="M157.117 21.2125L162.758 24.7872C163.485 25.2452 164.381 24.5638 164.168 23.726L162.534 17.314C162.49 17.1363 162.497 16.9497 162.554 16.7758C162.612 16.6018 162.717 16.4477 162.859 16.331L167.918 12.1196C168.578 11.5723 168.242 10.4664 167.381 10.4105L160.777 9.98601C160.597 9.97555 160.423 9.91293 160.278 9.80581C160.133 9.69868 160.022 9.55169 159.96 9.3828L157.497 3.19424C157.432 3.0154 157.313 2.86091 157.157 2.75174C157.001 2.64257 156.815 2.58401 156.624 2.58401C156.433 2.58401 156.247 2.64257 156.091 2.75174C155.935 2.86091 155.816 3.0154 155.751 3.19424L153.289 9.3828C153.226 9.55169 153.115 9.69868 152.97 9.80581C152.825 9.91293 152.652 9.97555 152.471 9.98601L145.868 10.4105C145.006 10.4664 144.67 11.5723 145.33 12.1196L150.39 16.331C150.531 16.4477 150.636 16.6018 150.694 16.7758C150.751 16.9497 150.758 17.1363 150.714 17.314L149.203 23.2568C148.946 24.2621 150.02 25.0776 150.882 24.5302L156.132 21.2125C156.279 21.1191 156.45 21.0695 156.624 21.0695C156.799 21.0695 156.969 21.1191 157.117 21.2125Z" stroke="#FFA43C" stroke-width="4.43794" stroke-linecap="round" stroke-linejoin="round"/>
</svg>
