<svg width="40" height="40" viewBox="0 0 40 40" fill="none" xmlns="http://www.w3.org/2000/svg">
<path d="M20 40C31.0222 40 40 31.0222 40 20C40 8.97778 31.0222 0 20 0C8.97778 0 0 8.97778 0 20C0 31.0222 8.97778 40 20 40ZM20 4.44444C28.5778 4.44444 35.5556 11.4222 35.5556 20C35.5556 28.5778 28.5778 35.5556 20 35.5556C11.4222 35.5556 4.44444 28.5778 4.44444 20C4.44444 11.4222 11.4222 4.44444 20 4.44444Z" fill="#E4C36C"/>
<path d="M27.8667 24.7111L22.2222 19.0667V8.88892H17.7778V20.9334L24.7111 27.8667L27.8667 24.7111Z" fill="#E4C36C"/>
</svg>
