<svg width="48" height="48" viewBox="0 0 48 48" fill="none" xmlns="http://www.w3.org/2000/svg">
<rect width="48" height="48" fill="#1E1E1E"/>
<path fill-rule="evenodd" clip-rule="evenodd" d="M16.9145 17.2594C15.3661 17.381 14.1958 18.6401 14.1204 20.1914C14.0583 21.4695 14 22.9404 14 23.9557C14 24.9826 14.0597 26.4756 14.1226 27.7638C14.1973 29.2953 15.3409 30.5459 16.8676 30.6869C18.5578 30.843 21.0032 31 24 31C26.989 31 29.4295 30.8438 31.1192 30.6881C32.6518 30.5469 33.7976 29.2882 33.8714 27.7507C33.9364 26.3944 34 24.8425 34 23.9557C34 23.0784 33.9378 21.5502 33.8735 20.2044C33.7991 18.6471 32.6269 17.3802 31.0726 17.2584C29.409 17.128 27.0095 17 24 17C20.9827 17 18.5786 17.1287 16.9145 17.2594ZM22 20.9873L27.1556 23.9557L22 26.924V20.9873Z" fill="#EAE1D4"/>
</svg>
