<svg width="40" height="40" viewBox="0 0 40 40" fill="none" xmlns="http://www.w3.org/2000/svg">
<path fill-rule="evenodd" clip-rule="evenodd" d="M28.9257 5.07225L26.9543 3.10082C26.4347 2.58122 26.2792 1.8 26.5604 1.12122C26.8416 0.442449 27.5041 0 28.2388 0H38.4C39.2837 0 40 0.716327 40 1.6V11.7616C40 12.4959 39.5576 13.1584 38.8788 13.4396C38.2 13.7208 37.4188 13.5653 36.8992 13.0457L34.9278 11.0743L11.0743 34.9278L13.0457 36.8992C13.5653 37.4188 13.7208 38.2 13.4396 38.8788C13.1584 39.5576 12.4959 40 11.7612 40H1.6C0.716327 40 0 39.2837 0 38.4V28.2388C0 27.5041 0.442449 26.8416 1.12122 26.5604C1.8 26.2796 2.58122 26.4347 3.10082 26.9543L5.07225 28.9257L28.9257 5.07225Z" fill="#E4C36C"/>
</svg>
