<svg width="166" height="145" viewBox="0 0 166 145" fill="none" xmlns="http://www.w3.org/2000/svg">
<path style="mix-blend-mode:multiply" d="M125.172 60.8097C123.857 84.7025 103.915 103.146 80.2472 102.212C55.9733 101.121 37.9112 80.9551 38.8452 57.2871C40.1603 33.3943 60.1017 14.9511 83.7697 15.8851C107.663 17.2002 126.106 37.1417 125.172 60.8097Z" fill="url(#paint0_radial_489_24688)"/>
<path d="M101.308 117.013L102.071 116.563L97.1818 100.44L96.0386 101.115L101.308 117.013Z" fill="#524500"/>
<path d="M96.4882 101.877C96.7423 101.727 96.8693 101.652 96.8693 101.652C97.2504 101.427 97.4066 100.821 97.5629 100.215L83.689 57.5433C83.2394 56.7812 82.6335 56.625 82.2524 56.8498C81.8713 57.0746 81.1092 57.5242 81.5588 58.2864L95.4327 100.958C95.7325 101.466 96.0843 101.773 96.4882 101.877Z" fill="#7A6300"/>
<path d="M88.5934 51.0538C88.9059 49.842 89.4725 48.4804 90.2931 46.9688C91.0095 45.8612 91.9279 44.8057 93.0482 43.8022L92.2175 43.2649C91.247 44.5224 90.4036 45.705 89.6872 46.8126C89.1206 48.1742 88.756 49.588 88.5934 51.0538Z" fill="#FFCE00"/>
<path d="M88.9858 59.5553C90.1061 58.5519 91.3014 57.6754 92.5716 56.926C93.7149 56.2516 95.0829 55.9582 96.2947 56.2707L96.6072 55.0589C94.6332 55.196 93.2652 55.4894 92.3468 56.545C90.8225 57.4442 89.7022 58.4477 88.9858 59.5553Z" fill="#FF8700"/>
<path d="M79.0172 53.1076C78.3719 51.4335 77.3977 49.7822 76.0945 48.1537C74.7913 46.5253 73.1819 45.2487 71.2665 44.3239L70.7291 45.1546C72.6446 46.0794 74.3061 47.154 75.7134 48.3785C77.0166 50.007 78.1179 51.5833 79.0172 53.1076Z" fill="#FF8700"/>
<path d="M76.6926 59.6161C74.7771 58.6913 72.8845 58.0956 71.0147 57.8288C69.145 57.562 67.1711 57.6992 65.093 58.2402L65.5426 59.0024C67.2168 58.3571 68.9887 58.1679 70.8585 58.4347C72.9823 58.5516 74.927 58.9454 76.6926 59.6161Z" fill="#FF8700"/>
<path d="M76.723 65.7625C75.5112 65.45 74.1953 65.5415 72.7751 66.0368C71.6091 66.3823 70.518 66.8548 69.5018 67.4543L69.9514 68.2165C70.9676 67.617 71.9838 67.0174 73 66.4179C74.166 66.0724 75.407 65.854 76.723 65.7625Z" fill="#FF8700"/>
<path d="M82.2602 45.5433C82.0189 43.9733 81.9046 42.3283 81.9173 40.6085C82.1256 39.8006 82.334 38.9927 82.5423 38.1849C82.3467 37.2729 82.428 36.54 82.7862 35.9861L81.9555 35.4488C81.7472 36.2567 81.6138 37.1916 81.5553 38.2535C81.6011 38.9114 81.5947 39.7714 81.5363 40.8333C81.7776 42.4033 82.0189 43.9733 82.2602 45.5433Z" fill="#FF8700"/>
<path d="M86.6117 62.4973C88.4814 62.7641 90.1721 63.3078 91.6836 64.1284C93.3451 65.203 94.4006 66.1214 95.2999 67.6457L96.062 67.196C95.1627 65.6717 93.5013 64.5971 92.0647 63.9035C90.2991 63.2328 88.4814 62.7641 86.6117 62.4973Z" fill="#FFCE00"/>
<path d="M79.5163 57.4362C78.1089 56.2117 76.5224 55.2641 74.7568 54.5934C73.2453 53.7728 71.6817 53.1541 70.066 52.7375L69.7535 53.9493C71.6232 54.2161 73.2389 54.6327 74.6006 55.1992C76.3662 55.87 78.0048 56.6156 79.5163 57.4362Z" fill="#FFFF91"/>
<path d="M83.1022 54.8069C82.965 52.833 83.1048 51.0381 83.5215 49.4224C84.215 47.9858 85.0648 45.9433 85.9832 44.8878L85.5336 44.1257C84.4589 45.7871 83.3843 47.4485 82.9156 49.2662C82.6488 51.1359 82.711 52.9828 83.1022 54.8069Z" fill="#FF8700"/>
<path d="M85.5067 58.0117C86.2231 56.9041 87.1415 55.8485 88.2618 54.8451C89.1281 53.9915 90.2713 53.317 91.6915 52.8217L91.2418 52.0595C89.9716 52.8089 88.7763 53.6854 87.6559 54.6888C86.7896 55.5424 86.0732 56.65 85.5067 58.0117Z" fill="#FFFF91"/>
<path d="M79.3219 63.202C78.514 62.9937 77.8332 62.7104 77.2794 62.3522C76.4715 62.1439 75.7386 62.0625 75.0806 62.1083C73.6148 61.9456 72.022 61.858 70.3021 61.8452L70.3707 62.8322C71.9407 62.5909 73.4586 62.5515 74.9244 62.7142C75.5824 62.6684 76.2403 62.6227 76.8983 62.577C77.7062 62.7853 78.514 62.9937 79.3219 63.202Z" fill="#FFFF91"/>
<path d="M81.2958 63.0648C81.1332 64.5307 80.9706 65.9965 80.808 67.4623C80.7203 69.0552 80.6326 70.648 80.545 72.2409L81.913 71.9475C81.2385 70.8043 81.3262 69.2114 81.4139 67.6186C81.1726 66.0486 81.1332 64.5307 81.2958 63.0648Z" fill="#FFFF91"/>
<path d="M92.8459 60.8738C94.266 60.3784 95.709 60.212 97.1748 60.3747C98.6407 60.5373 99.9274 60.9768 101.035 61.6932L101.572 60.8625C100.136 60.1689 98.6991 59.4754 97.3311 59.7688C95.6112 59.756 94.1162 60.1244 92.8459 60.8738Z" fill="#FFCE00"/>
<path d="M94.2904 50.2612C95.1567 49.4077 96.0979 48.6811 97.1141 48.0816C98.1303 47.4821 99.2964 47.1366 100.612 47.0451L100.544 46.0582C98.9509 45.9705 97.8077 46.645 96.8893 47.7005C95.8731 48.3 95.0068 49.1536 94.2904 50.2612Z" fill="#FFCE00"/>
<path d="M70.6224 49.3271C69.1109 48.5066 67.6743 47.813 66.3126 47.2464C64.6969 46.8298 63.104 46.7421 61.534 46.9834L61.6026 47.9704C63.1726 47.7291 64.6905 47.6897 66.1563 47.8523C67.6222 48.015 69.1109 48.5066 70.6224 49.3271Z" fill="#FF8700"/>
<path d="M77.9504 43.4627C77.7091 41.8927 77.2137 40.4726 76.4643 39.2024C76.1645 38.6943 75.7898 38.0592 75.3402 37.297C74.8905 36.5349 74.3888 35.9747 73.835 35.6165L73.2977 36.4472C73.8515 36.8054 74.2783 37.2386 74.5781 37.7467C75.2818 38.3589 75.7835 38.9191 76.0832 39.4272C76.8326 40.6974 77.455 42.0426 77.9504 43.4627Z" fill="#FFCE00"/>
<path d="M77.3098 68.4985C76.0853 69.9059 75.1897 71.2904 74.6232 72.6521C73.9525 74.4176 73.6108 76.1604 73.598 77.8803L74.585 77.8117C74.3437 76.2417 74.5584 74.5739 75.2291 72.8083C75.6457 71.1926 76.3393 69.756 77.3098 68.4985Z" fill="#FFCE00"/>
<path d="M89.984 68.2131C91.0916 68.9296 92.1472 69.848 93.1506 70.9683C93.7502 71.9845 94.4246 73.1277 95.174 74.3979L95.9362 73.9483C95.1868 72.678 94.3853 71.6098 93.5317 70.7435C92.2742 69.773 91.0916 68.9296 89.984 68.2131Z" fill="#FFCE00"/>
<g style="mix-blend-mode:color-dodge">
<path d="M66.9567 42.2432L67.856 43.7674L67.0062 45.8099L69.3612 45.448L70.6415 46.7474L70.8854 44.5487L72.7908 43.4246L70.7483 42.5748L70.6111 40.6008L68.9306 42.106L66.9567 42.2432Z" fill="#FF8700"/>
</g>
<path d="M81.7038 48.9538L80.6483 48.0354L80.7359 46.4425L79.8175 47.4981L78.6057 47.1856L78.6743 48.1725L77.9808 49.6091L79.3488 49.3157L80.0233 50.4589L80.3358 49.2471L81.7038 48.9538Z" fill="#FFFF91"/>
<path d="M88.6507 43.3144L87.6638 43.383L86.6082 42.4646L86.2957 43.6764L85.5336 44.126L86.3643 44.6633L86.6577 46.0314L87.5761 44.9758L88.7879 45.2883L88.1134 44.1451L88.6507 43.3144Z" fill="#FFFF91"/>
<g style="mix-blend-mode:color-dodge">
<path d="M97.6211 41.1041L96.253 41.3975L94.9727 40.0981L94.6602 41.3099L93.1359 42.2092L94.5725 42.9027L94.4848 44.4956L95.628 43.8211L97.2209 43.9088L96.5464 42.7656L97.6211 41.1041Z" fill="#FF8700"/>
</g>
<g style="mix-blend-mode:color-dodge">
<path d="M68.5643 71.0897L68.8577 72.4578L67.9393 73.5133L69.5321 73.601L70.2066 74.7442L70.5191 73.5324L72.112 73.6201L71.0564 72.7017L71.1441 71.1088L70.0009 71.7833L68.5643 71.0897Z" fill="#FF8700"/>
</g>
<g style="mix-blend-mode:color-dodge">
<path d="M81.4443 73.7652L81.9625 75.5143L80.663 76.7946L82.2559 76.8823L82.7741 78.6314L83.8487 76.97L85.4416 77.0576L84.1612 75.7582L84.63 73.9405L83.1057 74.8398L81.4443 73.7652Z" fill="#FF8700"/>
</g>
<path d="M98.3293 68.4267L98.1731 69.0326L97.792 69.2574L98.0168 69.6385L98.2416 70.0196L98.6227 69.7947L99.2286 69.951L99.0038 69.5699L99.5411 68.7392L98.779 69.1888L98.3293 68.4267Z" fill="#FF8700"/>
<g style="mix-blend-mode:color-dodge">
<path d="M83.6551 31.3641L82.9616 32.8007L81.2125 33.3189L82.6491 34.0125L82.5614 35.6054L83.7046 34.9309L85.5223 35.3996L85.0041 33.6505L85.9225 32.595L84.3296 32.5073L83.6551 31.3641Z" fill="#FF8700"/>
</g>
<g style="mix-blend-mode:color-dodge">
<path d="M89.142 58.9493L88.8295 60.161L87.6863 60.8355L89.1229 61.5291L89.7974 62.6723L90.1099 61.4605L91.7028 61.5482L91.0283 60.405L91.3408 59.1932L89.9728 59.4866L89.142 58.9493Z" fill="#FF8700"/>
</g>
<g style="mix-blend-mode:color-dodge">
<path d="M99.8996 51.0615L99.9682 52.0485L99.4309 52.8792L100.418 52.8106L100.486 53.7976L101.024 52.9668L102.011 52.8983L101.561 52.1361L101.717 51.5302L100.73 51.5988L99.8996 51.0615Z" fill="#FF8700"/>
</g>
<g style="mix-blend-mode:color-dodge">
<path d="M58.916 52.1241L59.2094 53.4922L58.291 54.5477L59.8839 54.6354L60.9394 55.5538L61.0271 53.9609L62.3951 53.6675L60.9585 52.974L61.0462 51.3811L60.1278 52.4366L58.916 52.1241Z" fill="#FF8700"/>
</g>
<path d="M84.6074 56.4877L82.6335 56.6249L81.3531 55.3254L81.1092 57.5242L79.5849 58.4234L81.0215 59.117L81.5397 60.8661L82.8392 59.5858L84.432 59.6734L83.5328 58.1492L84.6074 56.4877Z" fill="#FFFF91"/>
<path d="M96.8693 101.652L102.071 116.563L101.328 114.433L100.809 112.684L99.7729 109.185L98.5116 105.306L97.9934 103.557L96.8693 101.652Z" fill="white"/>
<g style="mix-blend-mode:color-dodge">
<path d="M66.56 65.0802L68.1528 65.1679L69.0521 66.6922L69.5209 64.8745L71.27 64.3563L69.6085 63.2817L69.6962 61.6888L68.1719 62.5881L66.7353 61.8945L67.2535 63.6436L66.56 65.0802Z" fill="#FF8700"/>
</g>
<g style="mix-blend-mode:color-dodge">
<path d="M104.758 61.0377L103.234 61.937L102.022 61.6245L102.315 62.9925L101.622 64.4292L102.99 64.1357L104.27 65.4352L104.358 63.8424L106.107 63.3241L104.67 62.6306L104.758 61.0377Z" fill="#FF8700"/>
</g>
<path style="mix-blend-mode:screen" d="M124.791 61.0343C123.632 84.3212 103.69 102.764 80.0224 101.83C56.3544 100.896 38.2923 80.7301 39.2263 57.0621C40.3851 33.7752 60.3266 15.332 83.9946 16.266C107.281 17.4248 125.725 37.3663 124.791 61.0343Z" fill="url(#paint1_radial_489_24688)"/>
<path style="mix-blend-mode:screen" d="M82.1951 64.5892C81.913 71.9476 75.5719 77.7435 67.9888 77.0803C60.6304 76.7982 54.8345 70.4572 55.4977 62.874C55.7798 55.5156 62.1208 49.7197 69.4792 50.0018C77.0624 50.665 82.6335 56.625 82.1951 64.5892Z" fill="url(#paint2_radial_489_24688)"/>
<path style="mix-blend-mode:screen" d="M66.3429 53.3932C66.0113 57.1848 63.0314 59.9703 59.4646 60.0198C55.673 59.6882 52.8875 56.7082 52.838 53.1414C53.1696 49.3498 56.1496 46.5643 59.9411 46.8959C63.5079 46.8464 66.2935 49.8264 66.3429 53.3932Z" fill="url(#paint3_radial_489_24688)"/>
<path style="mix-blend-mode:screen" d="M76.0451 44.5868C76.0945 48.1536 72.7335 51.164 68.9419 50.8324C65.3751 50.8819 62.5896 47.9019 62.9212 44.1103C63.2528 40.3187 66.2327 37.5331 69.7995 37.4837C73.5911 37.8153 76.3766 40.7952 76.0451 44.5868Z" fill="url(#paint4_radial_489_24688)"/>
<path style="mix-blend-mode:screen" d="M93.1931 34.4696C92.7739 39.8541 88.2696 43.5389 83.11 43.5007C77.7255 43.0814 73.6596 38.802 74.0789 33.4175C74.1171 28.2579 78.7776 23.9672 84.1621 24.3865C89.3217 24.4246 93.3876 28.7041 93.1931 34.4696Z" fill="url(#paint5_radial_489_24688)"/>
<path style="mix-blend-mode:screen" d="M99.5984 60.9999C99.5602 66.1596 94.8997 70.4503 89.5152 70.031C84.3556 69.9928 80.0649 65.3323 80.4842 59.9479C80.5224 54.7882 85.4077 50.8786 90.5673 50.9168C95.9518 51.3361 100.018 55.6155 99.5984 60.9999Z" fill="url(#paint6_radial_489_24688)"/>
<path style="mix-blend-mode:screen" d="M92.5065 75.9714C92.4683 81.131 87.8078 85.4217 82.4234 85.0025C77.2637 84.9643 72.973 80.3038 73.3923 74.9193C73.4305 69.7597 78.3158 65.85 83.4755 65.8882C88.8599 66.3075 92.9258 70.5869 92.5065 75.9714Z" fill="url(#paint7_radial_489_24688)"/>
<path style="mix-blend-mode:screen" d="M101.862 42.1978C101.912 45.7645 98.5507 48.7749 95.1401 48.2185C91.5734 48.268 88.7878 45.288 88.7383 41.7212C89.0699 37.9296 92.0499 35.1441 95.6167 35.0946C99.4083 35.4262 102.194 38.4062 101.862 42.1978Z" fill="url(#paint8_radial_489_24688)"/>
<path style="mix-blend-mode:screen" d="M77.0467 73.2774C76.7152 77.069 73.5104 79.4735 69.9436 79.523C66.152 79.1914 63.3664 76.2114 63.698 72.4198C63.6486 68.853 66.6285 66.0675 70.4201 66.3991C73.9869 66.3496 76.9973 69.7106 77.0467 73.2774Z" fill="url(#paint9_radial_489_24688)"/>
<path style="mix-blend-mode:screen" d="M110.28 63.4312C110.329 66.9979 107.349 69.7835 103.558 69.4519C99.9908 69.5014 97.2052 66.5214 97.1557 62.9546C97.4873 59.163 100.467 56.3775 104.034 56.328C107.826 56.6596 110.611 59.6396 110.28 63.4312Z" fill="url(#paint10_radial_489_24688)"/>
<path style="mix-blend-mode:screen" d="M107.483 51.7249C107.151 55.5165 104.171 58.3021 100.38 57.9705C96.8129 58.02 93.8025 54.6589 94.1341 50.8673C94.0846 47.3005 97.6705 44.6712 101.237 44.6218C104.648 45.1782 107.433 48.1582 107.483 51.7249Z" fill="url(#paint11_radial_489_24688)"/>
<path style="mix-blend-mode:multiply" d="M97.5848 52.8447C108.201 74.3218 99.8894 100.287 78.4124 110.904C57.5412 121.676 31.5755 113.364 20.5784 92.1122C9.58118 70.86 18.2737 44.6695 39.7508 34.0534C60.6219 23.281 86.5876 31.5925 97.5848 52.8447Z" fill="url(#paint12_radial_489_24688)"/>
<path d="M104.348 113.069L105.11 112.619L92.5996 100.992L92.0623 101.823L104.348 113.069Z" fill="#524500"/>
<path d="M92.893 102.36C93.4303 101.53 93.2055 101.149 92.9807 100.768L59.516 70.1674C58.9101 70.0111 58.5291 70.2359 58.148 70.4608C57.7669 70.6856 57.8355 71.6725 58.0603 72.0536L91.6812 102.048C91.981 102.556 92.3849 102.66 92.893 102.36Z" fill="#7A6300"/>
<path d="M60.5603 62.3593C60.319 60.7893 60.2797 59.2714 60.4423 57.8055C60.3508 56.4896 60.5884 55.1508 61.155 53.7891L60.5491 53.6329C59.9825 54.9945 59.8199 56.4604 60.0612 58.0304C59.8986 59.4962 60.065 60.9392 60.5603 62.3593Z" fill="#FFCE00"/>
<path d="M65.213 69.3747C65.7795 68.013 66.421 66.7784 67.1374 65.6707C67.831 64.2341 68.7494 63.1786 69.8926 62.5041L69.443 61.742C67.9187 62.6413 67.2251 64.0779 66.5315 65.5145C65.8151 66.6221 65.3756 67.9088 65.213 69.3747Z" fill="#FF8700"/>
<path d="M53.6819 68.9861C52.1247 67.5075 50.3362 66.5078 48.3166 65.987C46.551 65.3163 44.6063 64.9225 42.4825 64.8056L42.5511 65.7925C44.525 65.6554 46.3947 65.9222 48.1603 66.5929C50.18 67.1137 52.0205 67.9114 53.6819 68.9861Z" fill="#FF8700"/>
<path d="M54.543 75.6699C52.5691 75.8071 50.7451 76.1983 49.0709 76.8435C47.1427 77.6386 45.4914 78.6129 44.117 79.7662L44.5666 80.5284C45.7911 79.121 47.3675 78.0197 49.2957 77.2246C50.82 76.3253 52.5691 75.8071 54.543 75.6699Z" fill="#FF8700"/>
<path d="M57.4658 80.6239C56.4496 81.2234 55.5083 81.95 54.642 82.8036C53.7757 83.6571 53.0593 84.7648 52.4928 86.1264L53.3235 86.6637C53.636 85.452 54.1504 84.2923 54.8669 83.1846C55.7332 82.3311 56.5995 81.4775 57.4658 80.6239Z" fill="#FF8700"/>
<path d="M52.5275 60.9341C51.6282 59.4098 50.7289 57.8855 49.8296 56.3612C49.634 55.4492 49.3863 54.7392 49.0866 54.2311C48.6369 53.4689 48.3143 52.6318 48.1187 51.7198L47.3566 52.1695C47.5522 53.0815 47.7999 53.7915 48.0996 54.2996C48.5493 55.0618 48.9989 55.8239 49.4486 56.5861C50.6019 57.9604 51.6282 59.4098 52.5275 60.9341Z" fill="#FF8700"/>
<path d="M64.8814 73.1664C66.5555 72.5211 68.2526 72.2049 69.9724 72.2176C71.5653 72.3053 73.383 72.774 74.8196 73.4676L75.3569 72.6369C73.6954 71.5623 71.7215 71.6994 70.1287 71.6117C68.3046 72.0029 66.5555 72.5211 64.8814 73.1664Z" fill="#FFCE00"/>
<path d="M56.0864 72.1906C54.2167 71.9238 52.4968 71.9111 50.9268 72.1524C49.2069 72.1397 47.435 72.3289 45.6109 72.7201L45.9043 74.0882C47.5785 73.4429 49.2006 72.9996 50.7706 72.7583C52.5946 72.3671 54.3666 72.1779 56.0864 72.1906Z" fill="#FFFF91"/>
<path d="M57.7861 68.1057C56.8868 66.5814 56.2415 64.9072 55.8504 63.0832C55.3321 61.3341 55.4198 59.7412 55.8886 57.9236L54.9016 57.9921C54.4328 59.8098 54.9511 61.5589 55.4693 63.308C55.8605 65.1321 56.6327 66.7313 57.7861 68.1057Z" fill="#FF8700"/>
<path d="M61.4899 70.0302C61.6526 68.5644 62.0171 67.1506 62.5837 65.789C62.8962 64.5772 63.6126 63.4696 64.7329 62.4661L63.9022 61.9288C62.7819 62.9322 62.1404 64.1669 61.9778 65.6327C61.4113 66.9944 61.2486 68.4602 61.4899 70.0302Z" fill="#FFFF91"/>
<path d="M58.6281 77.3697C57.9701 77.4154 57.1851 77.536 56.2731 77.7316C55.765 78.0314 55.0549 78.2791 54.1429 78.4747C52.8727 79.2241 51.6024 79.9735 50.3322 80.7229L50.7819 81.485C51.9022 80.4816 53.0975 79.6052 54.3677 78.8558C55.1299 78.4061 55.8399 78.1584 56.4979 78.1127C57.26 77.6631 57.9701 77.4154 58.6281 77.3697Z" fill="#FFFF91"/>
<path d="M60.5334 76.2452C61.0288 77.6653 61.5241 79.0854 62.0195 80.5055C62.9188 82.0298 63.5932 83.173 64.4925 84.6973L65.0299 83.8666C64.3554 82.7234 63.2998 81.805 62.4006 80.2807C61.9052 78.8606 61.2828 77.5154 60.5334 76.2452Z" fill="#FFFF91"/>
<path d="M69.5419 68.8756C70.5124 67.6181 71.6327 66.6147 72.9029 65.8653C74.1732 65.1159 75.4142 64.8974 76.626 65.2099L77.1633 64.3792C75.5704 64.2915 73.8213 64.8097 72.6781 65.4842C71.4079 66.2336 70.3625 67.3641 69.5419 68.8756Z" fill="#FFCE00"/>
<path d="M65.6705 58.831C65.8331 57.3651 66.1456 56.1533 66.6079 55.1956C67.3244 54.088 68.1907 53.2344 69.2068 52.6349L68.7572 51.8728C67.614 52.5472 66.9204 53.9838 66.3831 54.8145C65.8166 56.1762 65.579 57.515 65.6705 58.831Z" fill="#FFCE00"/>
<path d="M44.1934 69.447C42.7276 69.2844 41.1576 69.5257 39.4835 70.1709C37.9135 70.4122 36.4413 71.1096 35.0669 72.2629L35.8976 72.8002C37.0179 71.7968 38.2882 71.0473 39.7083 70.552C41.1284 70.0566 42.6234 69.6883 44.1934 69.447Z" fill="#FF8700"/>
<path d="M47.9738 61.0518C46.9703 59.9315 45.8398 58.8861 44.5823 57.9156C44.0285 57.5574 43.2727 57.1471 42.315 56.6847C41.7612 56.3265 40.9533 56.1182 39.8914 56.0597L39.96 57.0467C40.618 57.001 41.3509 57.0823 42.1588 57.2906C42.9666 57.4989 43.6474 57.7822 44.2012 58.1404C45.7128 58.961 46.9703 59.9315 47.9738 61.0518Z" fill="#FFCE00"/>
<path d="M59.4206 83.0663C59.258 84.5321 59.1703 86.125 59.1576 87.8449C59.5488 89.6689 60.194 91.3431 61.0933 92.8673L61.6306 92.0366C60.8812 90.7664 60.2588 89.4212 59.7635 88.0011C59.5222 86.4311 59.4079 84.7862 59.4206 83.0663Z" fill="#FFCE00"/>
<path d="M70.8527 76.3217C72.0645 76.6342 73.2762 76.9466 74.488 77.2591C75.8497 77.8257 76.9573 78.5421 77.8109 79.4084L78.3482 78.5777C77.2406 77.8613 76.0809 77.3468 74.8691 77.0343C73.2534 76.6177 71.9146 76.3801 70.8527 76.3217Z" fill="#FFCE00"/>
<g style="mix-blend-mode:color-dodge">
<path d="M37.5477 65.1485L39.2091 66.2231L39.3463 68.197L41.0268 66.6918L43.4504 67.3168L42.3263 65.4115L43.4009 63.75L41.427 63.8872L39.9218 62.2067L39.453 64.0243L37.5477 65.1485Z" fill="#FF8700"/>
</g>
<path d="M53.7202 63.8264L52.5084 63.5139L51.8339 62.3707L51.5214 63.5825L50.1534 63.8759L51.2089 64.7942L50.8964 66.006L52.0397 65.3316L53.2514 65.6441L52.958 64.276L53.7202 63.8264Z" fill="#FFFF91"/>
<path d="M56.8946 55.275L56.3573 56.1057L55.1455 55.7932L55.2141 56.7801L54.9016 57.9919L55.8886 57.9234L56.7193 58.4607L57.0318 57.2489L58.0187 57.1803L56.9632 56.2619L56.8946 55.275Z" fill="#FFFF91"/>
<g style="mix-blend-mode:color-dodge">
<path d="M63.6167 49.2547L62.4735 49.9292L61.0369 49.2356L61.5551 50.9847L60.2556 52.2651L61.8485 52.3528L62.5229 53.496L63.2165 52.0594L64.8094 52.147L63.529 50.8476L63.6167 49.2547Z" fill="#FF8700"/>
</g>
<g style="mix-blend-mode:color-dodge">
<path d="M53.5292 89.6245L54.5847 90.5429L54.2722 91.7547L55.6403 91.4613L56.471 91.9986L56.1776 90.6306L57.7019 89.7313L56.109 89.6436L55.8156 88.2756L54.8972 89.3311L53.5292 89.6245Z" fill="#FF8700"/>
</g>
<g style="mix-blend-mode:color-dodge">
<path d="M65.9291 85.3912L66.8284 86.9155L66.7407 88.5083L67.8839 87.8338L69.5454 88.9085L69.633 87.3156L70.5514 86.2601L69.3396 85.9476L68.8214 84.1985L67.522 85.4789L65.9291 85.3912Z" fill="#FF8700"/>
</g>
<path d="M77.9367 72.6562L78.1615 73.0373L77.6242 73.868L78.3864 73.4183L78.836 74.1805L78.9922 73.5746L79.3733 73.3497L79.1485 72.9687L78.9237 72.5876L78.5426 72.8124L77.9367 72.6562Z" fill="#FF8700"/>
<g style="mix-blend-mode:color-dodge">
<path d="M46.6326 47.4593L47.1509 49.2084L45.8514 50.4887L47.4443 50.5764L48.1187 51.7196L48.8123 50.283L50.4051 50.3707L49.1248 49.0712L49.2125 47.4784L48.0693 48.1528L46.6326 47.4593Z" fill="#FF8700"/>
</g>
<g style="mix-blend-mode:color-dodge">
<path d="M64.9882 68.9938L65.6627 70.137L65.1253 70.9678L66.4934 70.6744L67.1678 71.8176L67.4803 70.6058L68.6235 69.9313L67.568 69.0129L67.4994 68.026L66.3562 68.7004L64.9882 68.9938Z" fill="#FF8700"/>
</g>
<g style="mix-blend-mode:color-dodge">
<path d="M71.074 56.67L71.5236 57.4321L70.9863 58.2628L71.9733 58.1943L72.804 58.7316L72.7354 57.7446L73.4976 57.295L72.6668 56.7577L72.2172 55.9955L71.6799 56.8262L71.074 56.67Z" fill="#FF8700"/>
</g>
<g style="mix-blend-mode:color-dodge">
<path d="M35.2535 77.8034L36.309 78.7218L36.6024 80.0898L37.7456 79.4154L38.9574 79.7279L38.2829 78.5847L39.2013 77.5291L37.9895 77.2166L36.934 76.2983L36.6215 77.51L35.2535 77.8034Z" fill="#FF8700"/>
</g>
<path d="M59.8285 68.9553L58.5291 70.2357L56.7114 69.767L57.2296 71.5161L56.5361 72.9527L58.51 72.8155L59.4093 74.3398L59.878 72.5221L61.4023 71.6228L59.9657 70.9293L59.8285 68.9553Z" fill="#FFFF91"/>
<path d="M93.2741 102.135L104.504 112.463L103.224 111.163L101.943 109.864L99.1577 106.884L96.2159 104.51L94.9355 103.21L93.2741 102.135Z" fill="white"/>
<g style="mix-blend-mode:color-dodge">
<path d="M48.4763 85.4138L50.0006 84.5145L51.4372 85.2081L50.919 83.459L52.2184 82.1786L50.6256 82.0909L49.7263 80.5667L49.0327 82.0033L47.2836 82.5215L48.564 83.8209L48.4763 85.4138Z" fill="#FF8700"/>
</g>
<g style="mix-blend-mode:color-dodge">
<path d="M79.8308 62.8053L79.1372 64.2419L77.3881 64.7601L78.8247 65.4537L78.7371 67.0465L79.8803 66.3721L81.3169 67.0656L80.7987 65.3165L82.0981 64.0362L80.5053 63.9485L79.8308 62.8053Z" fill="#FF8700"/>
</g>
<path style="mix-blend-mode:screen" d="M97.2037 53.0694C107.976 73.9405 99.6646 99.9062 78.1876 110.522C57.3164 121.295 31.7318 112.758 20.9595 91.8872C10.1871 71.0161 18.4986 45.0504 39.3697 34.278C60.8468 23.6619 86.4314 32.1982 97.2037 53.0694Z" fill="url(#paint13_radial_489_24688)"/>
<path style="mix-blend-mode:screen" d="M61.97 76.9389C65.186 83.2609 62.3927 91.5871 56.0708 94.8032C49.3677 98.2441 41.2663 95.8318 37.8254 89.1288C34.3845 82.4258 37.1779 74.0996 43.4998 70.8835C50.2028 67.4426 58.5291 70.2359 61.97 76.9389Z" fill="url(#paint14_radial_489_24688)"/>
<path style="mix-blend-mode:screen" d="M42.6309 75.5055C44.4295 78.5541 43.3358 82.7953 39.6813 84.4376C36.6328 86.2362 32.5478 84.5366 30.7492 81.488C29.3317 78.2147 30.6502 74.3545 33.6988 72.5559C36.9722 71.1384 41.2134 72.2321 42.6309 75.5055Z" fill="url(#paint15_radial_489_24688)"/>
<path style="mix-blend-mode:screen" d="M46.8991 62.7137C48.3166 65.9871 46.9981 69.8472 43.9495 71.6458C40.6761 73.0633 36.4349 71.9696 35.0174 68.6962C33.2188 65.6477 34.3125 61.4064 37.967 59.7641C41.0155 57.9655 45.1005 59.6651 46.8991 62.7137Z" fill="url(#paint16_radial_489_24688)"/>
<path style="mix-blend-mode:screen" d="M56.2088 45.4058C58.9067 49.9786 56.7383 55.8813 52.5466 58.3544C47.7489 60.6712 41.69 59.1087 39.3732 54.311C37.0564 49.5134 38.8437 43.8355 43.4165 41.1377C48.2142 38.8209 53.892 40.6082 56.2088 45.4058Z" fill="url(#paint17_radial_489_24688)"/>
<path style="mix-blend-mode:screen" d="M75.2579 65.5031C77.9558 70.0759 75.7874 75.9786 70.9897 78.2954C66.5731 80.3874 60.5142 78.8249 58.1974 74.0272C55.8806 69.2296 57.6679 63.5517 62.4656 61.2349C67.2632 58.9181 72.9411 60.7054 75.2579 65.5031Z" fill="url(#paint18_radial_489_24688)"/>
<path style="mix-blend-mode:screen" d="M76.5799 81.6755C78.8967 86.4732 77.1094 92.151 72.5366 94.8489C67.7389 97.1657 62.0611 95.3784 59.7443 90.5807C57.0464 86.0079 59.2148 80.1052 63.7876 77.4074C68.2042 75.3154 74.488 77.2589 76.5799 81.6755Z" fill="url(#paint19_radial_489_24688)"/>
<path style="mix-blend-mode:screen" d="M67.877 47.7684C69.9004 51.198 68.5818 55.0582 64.9274 56.7005C61.8788 58.4991 58.0187 57.1805 56.2201 54.132C54.5778 50.4775 55.8963 46.6174 59.1697 45.1999C62.2182 43.4013 66.4595 44.495 67.877 47.7684Z" fill="url(#paint20_radial_489_24688)"/>
<path style="mix-blend-mode:screen" d="M61.5125 87.4831C63.3111 90.5316 61.9925 94.3918 58.5629 96.4152C55.2895 97.8327 51.4294 96.5142 49.6308 93.4656C47.9885 89.8112 49.307 85.951 52.5804 84.5335C56.01 82.5101 59.8702 83.8286 61.5125 87.4831Z" fill="url(#paint21_radial_489_24688)"/>
<path style="mix-blend-mode:screen" d="M86.1336 62.1695C87.5511 65.4429 86.2326 69.303 83.184 71.1016C79.9106 72.5191 75.6694 71.4254 74.2519 68.152C72.2285 64.7224 73.547 60.8622 77.2015 59.2199C80.25 57.4213 84.1102 58.7399 86.1336 62.1695Z" fill="url(#paint22_radial_489_24688)"/>
<path style="mix-blend-mode:screen" d="M77.3959 53.454C79.1945 56.5026 78.1008 60.7438 74.4463 62.3861C71.3978 64.1847 67.5376 62.8662 65.5142 59.4365C64.0967 56.1632 65.4153 52.303 68.4638 50.5044C71.7372 49.0869 75.9784 50.1806 77.3959 53.454Z" fill="url(#paint23_radial_489_24688)"/>
<path d="M126.521 115.913L128.291 121.222C128.291 125.647 120.327 128.744 110.151 128.744C99.9747 128.744 91.5682 125.647 91.5682 121.222L93.338 115.47C93.338 119.452 100.86 122.107 110.151 122.107C119 122.107 126.079 119.452 126.521 115.913Z" fill="#FFC800"/>
<path style="mix-blend-mode:multiply" d="M126.521 115.913L128.291 121.222C128.291 125.647 120.327 128.744 110.151 128.744C99.9747 128.744 91.5682 125.647 91.5682 121.222L93.338 115.47C93.338 119.452 100.86 122.107 110.151 122.107C119 122.107 126.079 119.452 126.521 115.913Z" fill="url(#paint24_linear_489_24688)"/>
<path d="M115.903 84.4991L126.521 115.913C126.079 119.452 119 122.107 110.151 122.107C100.86 122.107 93.338 119.452 93.338 115.47L103.957 84.4991C104.399 85.384 107.054 86.2689 110.151 86.2689C112.806 86.2689 115.46 85.384 115.903 84.4991Z" fill="#00CCCC"/>
<path style="mix-blend-mode:multiply" d="M115.903 84.4991L126.521 115.913C126.079 119.452 119 122.107 110.151 122.107C100.86 122.107 93.338 119.452 93.338 115.47L103.957 84.4991C104.399 85.384 107.054 86.2689 110.151 86.2689C112.806 86.2689 115.46 85.384 115.903 84.4991Z" fill="url(#paint25_linear_489_24688)"/>
<path d="M115.018 81.8446L115.903 84.4993C115.46 85.3842 112.806 86.2691 110.151 86.2691C107.054 86.2691 104.399 85.3842 103.957 84.4993L104.842 81.8446C105.284 82.7295 107.496 83.6144 110.151 83.6144C112.363 83.6144 114.575 82.7295 115.018 81.8446Z" fill="#FFC800"/>
<path style="mix-blend-mode:multiply" d="M115.018 81.8446L115.903 84.4993C115.46 85.3842 112.806 86.2691 110.151 86.2691C107.054 86.2691 104.399 85.3842 103.957 84.4993L104.842 81.8446C105.284 82.7295 107.496 83.6144 110.151 83.6144C112.363 83.6144 114.575 82.7295 115.018 81.8446Z" fill="url(#paint26_linear_489_24688)"/>
<path d="M111.036 69.8983L115.018 81.8444C114.575 82.7293 112.363 83.6142 110.151 83.6142C107.496 83.6142 105.284 82.7293 104.842 81.8444L109.266 69.8983C109.709 68.571 110.151 68.571 111.036 69.8983Z" fill="#00CCCC"/>
<path style="mix-blend-mode:screen" d="M109.266 72.9954L105.284 83.6141L104.842 85.8263L95.1078 113.7L93.7804 119.01C93.7804 122.107 99.9747 124.762 107.939 125.204C108.824 107.506 108.824 89.8083 109.708 72.1105C109.414 72.4054 109.266 72.7004 109.266 72.9954Z" fill="url(#paint27_linear_489_24688)"/>
<mask id="mask0_489_24688" style="mask-type:luminance" maskUnits="userSpaceOnUse" x="93" y="84" width="34" height="39">
<path d="M115.814 84.322L126.521 115.824C126.212 119.408 118.956 122.284 110.018 122.284C100.904 122.284 93.515 119.275 93.515 115.603L104.178 84.322C104.488 85.4724 106.965 86.313 109.974 86.313C112.983 86.313 115.46 85.4724 115.814 84.322Z" fill="white"/>
</mask>
<g mask="url(#mask0_489_24688)">
<g style="mix-blend-mode:screen">
<path d="M133.601 98.215C123.867 118.125 88.471 111.488 89.3559 130.071L90.2408 133.611C89.3559 115.47 124.752 122.107 134.485 101.755L133.601 98.215Z" fill="#00CCCC"/>
<path d="M131.831 91.1358L130.946 87.1538C121.212 107.064 85.8164 100.87 86.7013 119.01L87.5862 122.992C86.7013 104.409 122.097 111.046 131.831 91.1358Z" fill="#00CCCC"/>
<path d="M129.176 80.0745L127.849 76.5349C118.557 96.445 83.1617 89.8083 83.6041 107.949L84.9315 111.931C84.0466 93.7903 119.442 100.427 129.176 80.0745Z" fill="#00CCCC"/>
</g>
<path d="M86.7013 113.701C86.4063 113.701 86.2589 113.553 86.2589 113.258C86.2589 112.963 86.4063 112.816 86.7013 112.816C86.9963 112.816 87.1437 112.963 87.1437 113.258C86.8488 113.553 86.7013 113.701 86.7013 113.701ZM86.7013 111.931C86.4063 111.931 86.2589 111.783 86.2589 111.488C86.2589 111.488 86.4063 111.341 86.7013 111.046C86.7013 111.046 86.8488 111.046 87.1437 111.046C87.4387 111.046 87.4387 111.193 87.1437 111.488C87.1437 111.783 86.9963 111.931 86.7013 111.931ZM87.5862 110.161C87.2912 109.866 87.1437 109.719 87.1437 109.719V109.276C87.4387 109.276 87.7337 109.276 88.0286 109.276C88.0286 109.571 88.0286 109.719 88.0286 109.719H87.5862L88.0286 110.161C88.0286 110.161 87.8812 110.161 87.5862 110.161ZM88.4711 108.834C88.4711 108.834 88.4711 108.686 88.4711 108.391C88.1761 108.391 88.0286 108.244 88.0286 107.949C88.0286 107.949 88.1761 107.949 88.4711 107.949C88.4711 107.654 88.6186 107.654 88.9135 107.949C89.2085 107.949 89.2085 108.096 88.9135 108.391C88.9135 108.686 88.766 108.834 88.4711 108.834ZM89.7984 107.064C89.7984 107.064 89.6509 107.064 89.356 107.064C89.356 106.769 89.356 106.621 89.356 106.621C89.6509 106.327 89.9459 106.327 90.2409 106.621C90.2409 106.621 90.2409 106.769 90.2409 107.064C89.9459 107.064 89.7984 107.064 89.7984 107.064ZM91.1258 106.179C91.1258 106.179 90.9783 106.032 90.6833 105.737C90.6833 105.737 90.8308 105.589 91.1258 105.294C91.4207 104.999 91.5682 104.999 91.5682 105.294C91.8632 105.589 91.8632 105.737 91.5682 105.737H91.1258L91.5682 106.179C91.5682 106.179 91.4207 106.179 91.1258 106.179ZM92.8955 104.852C92.6006 104.852 92.4531 104.852 92.4531 104.852C92.1581 104.557 92.1581 104.409 92.4531 104.409C92.8956 103.967 92.8955 103.967 93.338 104.409C93.338 104.704 93.1905 104.852 92.8955 104.852ZM94.2229 103.967C93.9279 103.672 93.9279 103.524 94.2229 103.524C94.2229 103.524 94.2229 103.377 94.2229 103.082C94.5178 103.082 94.6653 103.229 94.6653 103.524C94.9603 103.819 94.9603 103.967 94.6653 103.967C94.6653 103.967 94.5178 103.967 94.2229 103.967ZM95.9927 103.524C95.9927 103.524 95.8452 103.377 95.5502 103.082C95.5502 102.787 95.6977 102.639 95.9927 102.639H96.4351C96.7301 102.934 96.7301 103.229 96.4351 103.524C96.1402 103.524 95.9927 103.524 95.9927 103.524ZM97.7625 102.639C97.4675 102.639 97.32 102.492 97.32 102.197C97.32 102.197 97.4675 102.049 97.7625 101.755C98.0574 101.755 98.2049 101.902 98.2049 102.197C98.2049 102.492 98.2049 102.639 98.2049 102.639L97.7625 102.197V102.639ZM99.5322 102.197C99.2373 102.197 99.0898 102.049 99.0898 101.755C99.0898 101.46 99.2373 101.312 99.5322 101.312H99.9747C99.9747 101.607 99.9747 101.902 99.9747 102.197C99.6797 102.197 99.5322 102.197 99.5322 102.197ZM101.302 101.312C101.007 101.312 100.86 101.312 100.86 101.312C100.86 101.017 101.007 100.722 101.302 100.427C101.302 100.427 101.744 100.427 101.744 100.87C101.744 101.165 101.744 101.312 101.744 101.312C101.45 101.312 101.302 101.312 101.302 101.312ZM103.072 100.87C102.777 100.87 102.629 100.722 102.629 100.427C102.629 100.132 102.777 99.9848 103.072 99.9848C103.367 99.9848 103.514 100.132 103.514 100.427C103.514 100.722 103.514 100.87 103.514 100.87H103.072ZM104.842 100.427C104.547 100.427 104.399 100.28 104.399 99.9848C104.399 99.6898 104.547 99.5423 104.842 99.5423C105.137 99.5423 105.284 99.5423 105.284 99.5423C105.284 99.8373 105.284 100.132 105.284 100.427C104.989 100.427 104.842 100.427 104.842 100.427ZM106.611 99.5423C106.316 99.5423 106.169 99.5423 106.169 99.5423C106.169 99.2473 106.316 98.9524 106.611 98.6574L107.054 99.0999C107.054 99.3948 107.054 99.5423 107.054 99.5423C106.759 99.5423 106.611 99.5423 106.611 99.5423ZM108.381 99.0999C108.086 99.0999 107.939 98.9524 107.939 98.6574C107.939 98.6574 108.086 98.5099 108.381 98.215C108.676 98.215 108.824 98.3625 108.824 98.6574C108.824 98.9524 108.824 99.0999 108.824 99.0999C108.529 99.0999 108.381 99.0999 108.381 99.0999ZM110.151 98.6574C109.856 98.6574 109.709 98.5099 109.709 98.215C109.709 97.92 109.856 97.7725 110.151 97.7725H110.593C110.593 98.0675 110.593 98.3625 110.593 98.6574C110.298 98.6574 110.151 98.6574 110.151 98.6574ZM111.921 97.7725C111.626 97.7725 111.478 97.7725 111.478 97.7725C111.478 97.4776 111.626 97.3301 111.921 97.3301C112.216 97.0351 112.363 97.0351 112.363 97.3301C112.363 97.625 112.363 97.7725 112.363 97.7725H111.921ZM113.691 97.3301C113.396 97.3301 113.248 97.1826 113.248 96.8876C113.248 96.5927 113.396 96.4452 113.691 96.4452C113.986 96.4452 114.133 96.5927 114.133 96.8876C114.133 96.8876 114.133 97.0351 114.133 97.3301L113.691 96.8876V97.3301ZM115.46 96.4452C115.165 96.4452 115.018 96.4452 115.018 96.4452C115.018 96.1502 115.165 95.8553 115.46 95.5603C115.46 95.5603 115.608 95.7078 115.903 96.0027C115.903 96.2977 115.755 96.4452 115.46 96.4452ZM117.23 96.0027C116.935 96.0027 116.788 95.8553 116.788 95.5603C116.788 95.2653 116.788 95.1178 116.788 95.1178C116.788 95.1178 116.935 95.1178 117.23 95.1178C117.23 94.8229 117.378 94.8229 117.673 95.1178C117.673 95.4128 117.525 95.7078 117.23 96.0027ZM119 95.1178C118.705 95.1178 118.557 94.9704 118.557 94.6754C118.262 94.6754 118.262 94.5279 118.557 94.233C118.852 94.233 119.147 94.233 119.442 94.233C119.442 94.5279 119.295 94.8229 119 95.1178ZM120.327 94.233C120.327 94.233 120.18 94.0855 119.885 93.7905C119.885 93.7905 120.032 93.643 120.327 93.3481C120.622 93.3481 120.77 93.3481 120.77 93.3481C121.065 93.643 121.065 93.938 120.77 94.233C120.77 94.233 120.622 94.233 120.327 94.233ZM122.097 93.3481C121.802 93.3481 121.655 93.2006 121.655 92.9056C121.655 92.9056 121.655 92.7581 121.655 92.4632C121.95 92.1682 122.245 92.1682 122.539 92.4632C122.539 92.7581 122.539 93.0531 122.539 93.3481L122.097 92.9056V93.3481ZM123.424 92.0207C123.129 91.7258 123.129 91.5783 123.424 91.5783C123.424 91.1358 123.867 91.1358 123.867 91.5783C124.162 91.8732 124.162 92.0207 123.867 92.0207C123.867 92.0207 123.719 92.0207 123.424 92.0207ZM125.194 91.1358C124.899 91.1358 124.752 90.9883 124.752 90.6934C124.457 90.6934 124.457 90.5459 124.752 90.2509C125.047 90.2509 125.194 90.2509 125.194 90.2509C125.489 90.5459 125.489 90.6934 125.194 90.6934V91.1358ZM126.521 89.8085C126.227 89.8085 126.079 89.8085 126.079 89.8085C125.784 89.5135 125.784 89.2186 126.079 88.9236C126.079 88.9236 126.521 88.9236 126.964 88.9236C126.964 89.2186 126.964 89.5135 126.964 89.8085C126.964 89.8085 126.816 89.8085 126.521 89.8085ZM127.849 88.4811C127.554 88.4811 127.406 88.4811 127.406 88.4811C127.111 88.1862 127.111 87.8912 127.406 87.5963C127.701 87.5963 127.849 87.5963 127.849 87.5963C128.144 87.8912 128.291 88.0387 128.291 88.0387L127.849 88.4811ZM128.734 87.1538C128.439 86.8589 128.291 86.5639 128.291 86.2689C128.586 85.9739 128.881 85.9739 129.176 86.2689C129.471 86.2689 129.471 86.4164 129.176 86.7114C129.176 87.0063 129.029 87.1538 128.734 87.1538ZM130.061 85.384C129.766 85.384 129.619 85.384 129.619 85.384C129.324 85.0891 129.324 84.9416 129.619 84.9416C129.619 84.6466 129.766 84.4991 130.061 84.4991C130.356 84.7941 130.504 85.0891 130.504 85.384C130.209 85.384 130.061 85.384 130.061 85.384Z" fill="#FFC800"/>
<path d="M88.0286 125.204C87.7336 125.204 87.5861 125.057 87.5861 124.762C87.5861 124.467 87.7336 124.319 88.0286 124.319C88.3236 124.319 88.471 124.467 88.471 124.762C88.471 125.057 88.3236 125.204 88.0286 125.204ZM88.471 123.434C88.1761 123.434 88.0286 123.434 88.0286 123.434C87.7336 123.434 87.7336 123.287 88.0286 122.992C88.0286 122.992 88.0286 122.844 88.0286 122.549C88.0286 122.549 88.1761 122.549 88.471 122.549C88.766 122.549 88.9135 122.697 88.9135 122.992C88.6185 123.287 88.471 123.434 88.471 123.434ZM88.9135 121.665C88.6185 121.665 88.471 121.517 88.471 121.222C88.471 121.222 88.471 121.075 88.471 120.78C88.766 120.78 89.061 120.78 89.3559 120.78C89.3559 121.075 89.3559 121.222 89.3559 121.222H88.9135L89.3559 121.665C89.3559 121.665 89.2084 121.665 88.9135 121.665ZM89.7984 120.337C89.7984 120.337 89.7984 120.19 89.7984 119.895C89.5034 119.895 89.5034 119.747 89.7984 119.452C89.7984 119.157 89.9459 119.157 90.2408 119.452C90.5358 119.452 90.5358 119.6 90.2408 119.895C90.2408 120.19 90.0933 120.337 89.7984 120.337ZM91.1257 118.567C91.1257 118.567 90.9782 118.567 90.6833 118.567C90.6833 118.272 90.6833 118.125 90.6833 118.125C90.9782 118.125 91.1257 118.125 91.1257 118.125C91.1257 117.83 91.2732 117.83 91.5682 118.125C91.8631 118.125 91.8631 118.272 91.5682 118.567C91.5682 118.567 91.4207 118.567 91.1257 118.567ZM92.4531 117.683C92.4531 117.683 92.4531 117.535 92.4531 117.24C92.1581 117.24 92.1581 117.093 92.4531 116.798C92.748 116.503 92.8955 116.503 92.8955 116.798C93.1905 117.093 93.1905 117.388 92.8955 117.683C92.8955 117.683 92.748 117.683 92.4531 117.683ZM94.2228 116.798C93.9279 116.798 93.7804 116.65 93.7804 116.355C93.7804 116.06 93.7804 115.913 93.7804 115.913C94.2228 115.47 94.6653 115.47 94.6653 115.913C94.6653 116.208 94.6653 116.355 94.6653 116.355H94.2228C94.2228 116.65 94.2228 116.798 94.2228 116.798ZM95.9926 115.47C95.6977 115.47 95.5502 115.47 95.5502 115.47C95.2552 115.175 95.2552 115.028 95.5502 115.028C95.8451 114.733 96.1401 114.733 96.4351 115.028C96.4351 115.323 96.2876 115.47 95.9926 115.47C95.9926 115.765 95.9926 115.765 95.9926 115.47ZM97.32 115.028C97.32 115.028 97.1725 114.88 96.8775 114.585C96.8775 114.29 97.025 114.143 97.32 114.143C97.7624 114.143 97.7624 114.143 97.7624 114.143C98.0574 114.438 98.0574 114.733 97.7624 115.028C97.7624 115.028 97.6149 115.028 97.32 115.028ZM99.0898 114.143C99.0898 114.143 98.9423 114.143 98.6473 114.143C98.6473 113.848 98.7948 113.553 99.0898 113.258C99.3847 113.258 99.5322 113.406 99.5322 113.701C99.8272 113.996 99.8272 114.143 99.5322 114.143C99.2372 114.143 99.0898 114.143 99.0898 114.143ZM100.86 113.701C100.86 113.701 100.712 113.553 100.417 113.258C100.417 112.963 100.565 112.816 100.86 112.816H101.302C101.597 113.111 101.597 113.406 101.302 113.701C101.007 113.701 100.86 113.701 100.86 113.701ZM102.629 112.816C102.629 112.816 102.482 112.816 102.187 112.816C102.187 112.521 102.334 112.226 102.629 111.931C102.924 111.931 103.072 112.078 103.072 112.373C103.367 112.668 103.367 112.816 103.072 112.816C102.777 112.816 102.629 112.816 102.629 112.816ZM104.399 112.373C104.399 112.373 104.252 112.226 103.957 111.931C103.957 111.636 104.104 111.488 104.399 111.488C104.399 111.488 104.842 111.488 104.842 111.931C105.137 112.226 105.137 112.373 104.842 112.373C104.547 112.373 104.399 112.373 104.399 112.373ZM106.169 111.931C106.169 111.931 106.021 111.783 105.726 111.488C105.726 111.193 105.874 111.046 106.169 111.046H106.611C106.906 111.341 106.906 111.636 106.611 111.931C106.316 111.931 106.169 111.931 106.169 111.931ZM107.939 111.046C107.939 111.046 107.791 111.046 107.496 111.046C107.496 110.751 107.644 110.603 107.939 110.603C107.939 110.161 108.381 110.603 108.381 110.603C108.676 110.898 108.676 111.046 108.381 111.046C108.086 111.046 107.939 111.046 107.939 111.046ZM109.708 110.603C109.708 110.603 109.561 110.456 109.266 110.161C109.266 110.161 109.413 110.013 109.708 109.719C110.003 109.719 110.151 109.866 110.151 110.161C110.446 110.456 110.446 110.603 110.151 110.603C109.856 110.603 109.708 110.603 109.708 110.603ZM111.478 110.161C111.478 110.161 111.331 110.013 111.036 109.719C111.036 109.424 111.183 109.276 111.478 109.276C111.773 109.276 111.921 109.424 111.921 109.719C112.216 109.719 112.216 109.866 111.921 110.161C111.626 110.161 111.478 110.161 111.478 110.161ZM113.248 109.276C113.248 109.276 113.101 109.276 112.806 109.276C112.806 108.981 112.953 108.834 113.248 108.834C113.248 108.391 113.69 108.834 113.69 108.834C113.985 109.129 113.985 109.276 113.69 109.276C113.396 109.276 113.248 109.276 113.248 109.276ZM115.018 108.834C115.018 108.834 114.87 108.686 114.575 108.391C114.575 108.391 114.723 108.244 115.018 107.949C115.313 107.949 115.46 108.096 115.46 108.391C115.755 108.391 115.755 108.539 115.46 108.834C115.165 108.834 115.018 108.834 115.018 108.834ZM116.788 107.949C116.493 107.949 116.345 107.949 116.345 107.949C116.345 107.654 116.493 107.506 116.788 107.506C117.083 107.211 117.23 107.211 117.23 107.506C117.23 107.801 117.23 107.949 117.23 107.949H116.788ZM118.557 107.506C118.262 107.506 118.115 107.359 118.115 107.064C118.115 106.769 118.262 106.621 118.557 106.621C118.852 106.326 119 106.326 119 106.621C119 106.916 119 107.211 119 107.506L118.557 107.064V107.506ZM120.327 106.621C120.032 106.621 119.885 106.474 119.885 106.179C119.885 106.179 119.885 106.031 119.885 105.736C120.18 105.736 120.475 105.736 120.77 105.736C120.77 106.031 120.622 106.326 120.327 106.621ZM121.655 105.736C121.655 105.736 121.655 105.589 121.655 105.294C121.36 105.294 121.36 105.147 121.655 104.852C121.949 104.852 122.097 104.852 122.097 104.852C122.392 105.147 122.392 105.442 122.097 105.736C122.097 105.736 121.949 105.736 121.655 105.736ZM123.424 104.852C123.424 104.852 123.277 104.704 122.982 104.409C122.982 104.409 122.982 104.262 122.982 103.967H123.424C123.424 103.672 123.572 103.672 123.867 103.967C123.867 104.262 123.867 104.557 123.867 104.852C123.572 104.852 123.424 104.852 123.424 104.852ZM125.194 103.524C124.899 103.524 124.752 103.524 124.752 103.524C124.457 103.229 124.457 103.082 124.752 103.082C124.752 102.639 125.194 102.639 125.194 103.082C125.489 103.377 125.489 103.524 125.194 103.524ZM126.521 102.639C126.226 102.639 126.079 102.639 126.079 102.639C126.079 102.344 126.079 102.049 126.079 101.754C126.374 101.754 126.669 101.754 126.964 101.754C126.964 102.049 126.964 102.344 126.964 102.639C126.964 102.639 126.816 102.639 126.521 102.639ZM127.849 101.312C127.849 101.312 127.701 101.312 127.406 101.312C127.406 101.017 127.406 100.722 127.406 100.427C127.849 100.427 127.849 100.427 128.291 100.427C128.291 100.722 128.291 101.017 128.291 101.312C127.996 101.312 127.849 101.312 127.849 101.312ZM129.176 99.9847C128.881 99.9847 128.734 99.9847 128.734 99.9847C128.734 99.6897 128.734 99.3948 128.734 99.0998C129.029 99.0998 129.324 99.0998 129.619 99.0998C129.619 99.3948 129.619 99.6897 129.619 99.9847C129.324 99.9847 129.176 99.9847 129.176 99.9847ZM130.061 98.6574C129.766 98.3624 129.766 98.0674 130.061 97.7725H130.503C130.798 97.7725 130.798 97.92 130.503 98.2149C130.503 98.5099 130.356 98.6574 130.061 98.6574ZM131.388 96.8876C131.093 96.8876 130.946 96.8876 130.946 96.8876C130.651 96.8876 130.651 96.7401 130.946 96.4451C130.946 96.1502 131.093 96.0027 131.388 96.0027C131.683 96.2976 131.831 96.5926 131.831 96.8876C131.536 96.8876 131.388 96.8876 131.388 96.8876Z" fill="#FFC800"/>
<path d="M91.5682 135.38C91.2732 135.38 91.1257 135.233 91.1257 134.938C91.1257 134.643 91.2732 134.495 91.5682 134.495C91.8631 134.495 92.0106 134.643 92.0106 134.938C92.0106 135.233 91.8631 135.38 91.5682 135.38ZM92.0106 133.61C91.7157 133.61 91.5682 133.463 91.5682 133.168V132.726C91.5682 132.726 91.7157 132.726 92.0106 132.726C92.3056 132.726 92.4531 132.873 92.4531 133.168C92.4531 133.463 92.3056 133.61 92.0106 133.61ZM92.4531 131.841C92.1581 131.546 92.0106 131.398 92.0106 131.398C92.3056 131.103 92.4531 130.956 92.4531 130.956C92.4531 130.956 92.6006 130.956 92.8955 130.956C93.1905 130.956 93.1905 131.103 92.8955 131.398C92.8955 131.693 92.748 131.841 92.4531 131.841ZM93.7804 130.071C93.4855 130.071 93.338 130.071 93.338 130.071C93.043 130.071 93.043 129.923 93.338 129.628C93.6329 129.333 93.7804 129.333 93.7804 129.628C94.0754 129.628 94.2229 129.776 94.2229 130.071L93.7804 129.628V130.071ZM94.6653 128.744C94.3703 128.449 94.3703 128.301 94.6653 128.301C94.9603 128.006 95.1078 128.006 95.1078 128.301C95.4027 128.301 95.4027 128.449 95.1078 128.744C95.1078 128.744 94.9603 128.744 94.6653 128.744ZM96.4351 127.859C96.1401 127.859 95.9926 127.711 95.9926 127.416C95.6977 127.416 95.6977 127.269 95.9926 126.974C96.2876 126.679 96.5826 126.679 96.8775 126.974C96.8775 127.269 96.7301 127.416 96.4351 127.416V127.859ZM97.7624 126.531C97.7624 126.531 97.6149 126.531 97.32 126.531C97.32 126.236 97.4675 126.089 97.7624 126.089C97.7624 125.646 98.2049 125.646 98.2049 126.089C98.4998 126.384 98.4998 126.531 98.2049 126.531C97.9099 126.531 97.7624 126.531 97.7624 126.531ZM99.5322 125.646C99.2373 125.646 99.0898 125.646 99.0898 125.646C99.0898 125.351 99.0898 125.204 99.0898 125.204C99.0898 124.909 99.2373 124.761 99.5322 124.761C99.5322 124.761 99.6797 124.909 99.9747 125.204C99.9747 125.499 99.8272 125.646 99.5322 125.646ZM101.302 125.204C101.007 125.204 100.86 125.056 100.86 124.761C100.565 124.467 100.565 124.319 100.86 124.319C101.155 124.024 101.449 124.024 101.744 124.319C101.744 124.614 101.597 124.761 101.302 124.761V125.204ZM103.072 124.319C102.777 124.319 102.629 124.172 102.629 123.877C102.334 123.877 102.334 123.729 102.629 123.434C102.924 123.434 103.219 123.582 103.514 123.877C103.514 124.172 103.367 124.319 103.072 124.319ZM104.399 123.877C104.399 123.877 104.399 123.729 104.399 123.434C104.104 123.139 104.104 122.992 104.399 122.992C104.842 122.549 104.842 122.992 105.284 122.992C105.284 123.287 105.137 123.434 104.842 123.434C104.842 123.729 104.842 123.877 104.842 123.877C104.842 123.877 104.694 123.877 104.399 123.877ZM106.169 122.992C105.874 122.697 105.874 122.402 106.169 122.107C106.611 122.107 106.611 122.107 107.054 122.549C107.054 122.844 106.906 122.992 106.611 122.992C106.611 122.992 106.464 122.992 106.169 122.992ZM107.939 122.549C107.939 122.549 107.939 122.402 107.939 122.107C107.644 121.812 107.644 121.664 107.939 121.664C108.381 121.664 108.381 121.664 108.824 122.107C108.824 122.107 108.676 122.254 108.381 122.549C108.381 122.549 108.234 122.549 107.939 122.549ZM109.708 122.107C109.708 122.107 109.708 121.959 109.708 121.664C109.414 121.369 109.414 121.222 109.708 121.222C110.151 121.222 110.151 121.222 110.593 121.222C110.593 121.517 110.446 121.812 110.151 122.107C110.151 122.107 110.003 122.107 109.708 122.107ZM111.478 121.222C111.183 120.927 111.183 120.632 111.478 120.337C111.921 120.337 111.921 120.779 112.363 120.779C112.363 121.074 112.216 121.222 111.921 121.222C111.921 121.222 111.773 121.222 111.478 121.222ZM113.691 120.779C113.396 120.779 113.248 120.632 113.248 120.337C112.953 120.042 112.953 119.895 113.248 119.895C113.543 119.895 113.838 120.042 114.133 120.337C114.133 120.632 113.985 120.779 113.691 120.779ZM115.018 120.337C115.018 120.337 115.018 120.19 115.018 119.895C114.723 119.6 114.723 119.452 115.018 119.452C115.46 119.452 115.46 119.452 115.903 119.452C115.903 119.747 115.755 120.042 115.46 120.337C115.46 120.337 115.313 120.337 115.018 120.337ZM116.788 119.452C116.493 119.157 116.493 118.862 116.788 118.567C117.083 118.567 117.378 118.715 117.673 119.01C117.673 119.305 117.525 119.452 117.23 119.452C117.23 119.452 117.083 119.452 116.788 119.452ZM118.557 119.01C118.557 119.01 118.41 118.862 118.115 118.567C118.115 118.272 118.262 118.125 118.557 118.125C118.852 118.125 119.147 118.272 119.442 118.567C119.442 118.567 119.295 118.715 119 119.01C119 119.01 118.852 119.01 118.557 119.01ZM120.327 118.125C120.327 118.125 120.18 118.125 119.885 118.125C119.885 117.83 120.032 117.535 120.327 117.24C120.622 117.24 120.77 117.387 120.77 117.682C121.065 117.977 121.065 118.125 120.77 118.125C120.77 118.125 120.622 118.125 120.327 118.125ZM122.097 117.682C122.097 117.682 121.95 117.535 121.655 117.24C121.655 116.945 121.802 116.797 122.097 116.797C122.392 116.502 122.539 116.502 122.539 116.797C122.834 117.092 122.834 117.387 122.539 117.682C122.244 117.682 122.097 117.682 122.097 117.682ZM123.867 116.797C123.572 116.797 123.424 116.65 123.424 116.355C123.424 116.06 123.572 115.913 123.867 115.913C123.867 115.913 124.014 115.913 124.309 115.913C124.309 116.208 124.309 116.502 124.309 116.797C124.309 116.797 124.162 116.797 123.867 116.797ZM125.637 115.913C125.342 115.913 125.194 115.765 125.194 115.47C124.899 115.47 124.899 115.323 125.194 115.028C125.489 115.028 125.784 115.028 126.079 115.028C126.079 115.323 125.932 115.618 125.637 115.913ZM126.964 115.028C126.964 115.028 126.816 114.88 126.521 114.585C126.521 114.29 126.669 114.143 126.964 114.143C127.259 113.848 127.406 113.848 127.406 114.143C127.701 114.438 127.701 114.733 127.406 115.028C127.406 115.028 127.259 115.028 126.964 115.028ZM128.734 113.7C128.439 113.7 128.291 113.7 128.291 113.7C127.996 113.405 127.996 113.258 128.291 113.258C128.586 112.963 128.881 112.963 129.176 113.258C129.176 113.258 129.176 113.405 129.176 113.7H128.734ZM130.061 112.815C130.061 112.815 129.914 112.668 129.619 112.373C129.619 112.373 129.619 112.225 129.619 111.931C129.914 111.636 130.209 111.636 130.503 111.931C130.503 112.225 130.503 112.373 130.503 112.373V112.815C130.209 112.815 130.061 112.815 130.061 112.815ZM131.388 111.488C131.388 111.488 131.241 111.488 130.946 111.488C130.946 111.193 130.946 110.898 130.946 110.603C131.388 110.603 131.831 110.603 131.831 110.603C132.126 110.898 132.126 111.193 131.831 111.488C131.831 111.488 131.683 111.488 131.388 111.488ZM132.716 110.161C132.716 110.161 132.568 110.161 132.273 110.161C132.273 109.866 132.273 109.571 132.273 109.276C132.568 109.276 132.863 109.276 133.158 109.276C133.158 109.571 133.158 109.718 133.158 109.718V110.161C132.863 110.161 132.716 110.161 132.716 110.161ZM134.043 108.833C133.748 108.833 133.601 108.686 133.601 108.391C133.306 108.391 133.306 108.243 133.601 107.949C133.601 107.949 134.043 107.506 134.043 107.949C134.338 107.949 134.486 108.096 134.486 108.391H134.043C134.043 108.686 134.043 108.833 134.043 108.833ZM134.928 107.064C134.928 107.064 134.78 107.064 134.486 107.064C134.486 106.769 134.486 106.621 134.486 106.621C134.486 106.179 134.928 106.179 135.37 106.179C135.37 106.474 135.37 106.621 135.37 106.621C135.37 106.916 135.37 107.064 135.37 107.064C135.075 107.064 134.928 107.064 134.928 107.064Z" fill="#FFC800"/>
<path d="M82.2768 103.524C82.2768 103.524 82.1293 103.524 81.8344 103.524C81.8344 103.524 81.8344 103.377 81.8344 103.082C81.8344 102.787 81.9819 102.639 82.2768 102.639C82.5718 102.639 82.7193 102.787 82.7193 103.082C82.4243 103.377 82.2768 103.524 82.2768 103.524ZM82.2768 101.754C81.9819 101.754 81.8344 101.607 81.8344 101.312C82.1293 101.017 82.4243 100.87 82.7193 100.87C83.0142 100.87 83.0142 101.017 82.7193 101.312C82.7193 101.607 82.5718 101.754 82.2768 101.754ZM83.1617 99.9847C83.1617 99.9847 83.0142 99.9847 82.7193 99.9847C82.7193 99.9847 82.7193 99.8372 82.7193 99.5422C83.0142 99.2472 83.1617 99.0998 83.1617 99.0998C83.4567 99.3947 83.6042 99.6897 83.6042 99.9847C83.3092 99.9847 83.1617 99.9847 83.1617 99.9847ZM84.0466 98.6573C84.0466 98.6573 84.0466 98.5098 84.0466 98.2149C83.7516 98.2149 83.6042 98.0674 83.6042 97.7724C83.8991 97.4775 84.1941 97.4775 84.4891 97.7724C84.784 97.7724 84.784 97.9199 84.4891 98.2149C84.4891 98.5098 84.3416 98.6573 84.0466 98.6573ZM85.374 97.33C85.374 97.33 85.2265 97.1825 84.9315 96.8875C84.9315 96.8875 84.9315 96.74 84.9315 96.4451C85.2265 96.1501 85.5214 96.1501 85.8164 96.4451C85.8164 96.74 85.8164 96.8875 85.8164 96.8875C85.5214 97.1825 85.374 97.33 85.374 97.33ZM86.7013 96.0026C86.7013 96.0026 86.5538 96.0026 86.2588 96.0026C86.2588 95.7077 86.4063 95.4127 86.7013 95.1177C86.9963 95.1177 87.1437 95.1177 87.1437 95.1177C87.4387 95.4127 87.4387 95.7077 87.1437 96.0026C86.8488 96.0026 86.7013 96.0026 86.7013 96.0026ZM88.4711 95.1177C88.1761 95.1177 88.0286 94.9703 88.0286 94.6753C87.7337 94.3803 87.7337 94.2328 88.0286 94.2328C88.4711 93.7904 88.4711 94.2328 88.9135 94.2328C88.9135 94.5278 88.766 94.6753 88.4711 94.6753C88.4711 94.6753 88.4711 94.8228 88.4711 95.1177ZM89.7984 94.2328C89.7984 94.2328 89.6509 94.0854 89.356 93.7904C89.356 93.4954 89.5035 93.348 89.7984 93.348C90.0934 93.053 90.2409 93.053 90.2409 93.348C90.5358 93.6429 90.5358 93.7904 90.2409 93.7904V94.2328C90.2409 94.2328 90.0934 94.2328 89.7984 94.2328ZM91.5682 93.348C91.5682 93.348 91.4207 93.2005 91.1258 92.9055C91.1258 92.6105 91.2732 92.4631 91.5682 92.4631H92.0106C92.3056 92.758 92.3056 93.053 92.0106 93.348C91.7157 93.348 91.5682 93.348 91.5682 93.348ZM93.338 92.4631C93.043 92.4631 92.8955 92.4631 92.8955 92.4631C92.8955 92.1681 93.043 91.8731 93.338 91.5782C93.6329 91.5782 93.7804 91.7257 93.7804 92.0206C93.7804 92.3156 93.7804 92.4631 93.7804 92.4631L93.338 92.0206V92.4631ZM95.1078 92.0206C94.8128 92.0206 94.6653 91.8731 94.6653 91.5782C94.6653 91.2832 94.8128 91.1357 95.1078 91.1357H95.5502C95.5502 91.4307 95.5502 91.7257 95.5502 92.0206C95.2553 92.0206 95.1078 92.0206 95.1078 92.0206ZM96.8776 91.1357C96.5826 91.1357 96.4351 91.1357 96.4351 91.1357C96.4351 90.8408 96.5826 90.5458 96.8776 90.2508C97.1725 90.2508 97.32 90.3983 97.32 90.6933C97.32 90.9882 97.1725 91.1357 96.8776 91.1357ZM98.6473 90.6933C98.3524 90.6933 98.2049 90.5458 98.2049 90.2508C98.2049 90.2508 98.3524 90.1033 98.6473 89.8084C98.6473 89.8084 99.0898 89.8084 99.0898 90.2508C99.0898 90.5458 98.9423 90.6933 98.6473 90.6933ZM100.417 90.2508C100.122 90.2508 99.9747 90.1033 99.9747 89.8084C99.9747 89.5134 100.122 89.3659 100.417 89.3659C100.417 89.3659 100.86 89.3659 100.86 89.8084C100.86 89.8084 100.712 89.9559 100.417 90.2508ZM102.187 89.8084C101.892 89.8084 101.744 89.6609 101.744 89.3659C101.744 89.071 101.892 88.9235 102.187 88.9235C102.187 88.4811 102.629 88.9235 102.629 88.9235C102.629 89.2185 102.629 89.3659 102.629 89.3659C102.334 89.6609 102.187 89.8084 102.187 89.8084ZM103.957 88.9235C103.662 88.9235 103.514 88.9235 103.514 88.9235C103.514 88.6285 103.662 88.3336 103.957 88.0386C103.957 88.0386 104.399 88.0386 104.399 88.481C104.399 88.776 104.399 88.9235 104.399 88.9235H103.957ZM105.727 88.481C105.432 88.481 105.284 88.3336 105.284 88.0386C105.284 87.7436 105.432 87.5962 105.727 87.5962C106.021 87.5962 106.169 87.7436 106.169 88.0386C106.169 88.3336 106.169 88.481 106.169 88.481C105.874 88.481 105.727 88.481 105.727 88.481ZM107.496 88.0386C107.201 88.0386 107.054 87.8911 107.054 87.5962C107.054 87.3012 107.201 87.1537 107.496 87.1537C107.496 86.7113 107.939 87.1537 107.939 87.1537C107.939 87.4487 107.939 87.5962 107.939 87.5962L107.496 88.0386ZM109.266 87.1537C108.971 87.1537 108.824 87.1537 108.824 87.1537C108.824 86.8587 108.971 86.5638 109.266 86.2688C109.561 86.2688 109.709 86.4163 109.709 86.7113C109.709 87.0062 109.561 87.1537 109.266 87.1537ZM111.036 86.7113C110.741 86.7113 110.593 86.5638 110.593 86.2688C110.593 85.9738 110.593 85.8264 110.593 85.8264C111.036 85.3839 111.478 85.8264 111.478 85.8264C111.478 86.1213 111.331 86.2688 111.036 86.2688V86.7113ZM112.806 85.8264C112.511 85.8264 112.363 85.6789 112.363 85.3839C112.068 85.089 112.068 84.9415 112.363 84.9415C112.658 84.9415 112.953 84.9415 113.248 84.9415C113.248 85.2364 113.101 85.5314 112.806 85.8264ZM114.133 84.9415C113.838 84.6465 113.838 84.3515 114.133 84.0566C114.428 84.0566 114.575 84.2041 114.575 84.499C114.87 84.499 114.87 84.6465 114.575 84.9415C114.575 84.9415 114.428 84.9415 114.133 84.9415ZM115.903 84.0566C115.903 84.0566 115.755 84.0566 115.46 84.0566C115.46 83.7616 115.608 83.4667 115.903 83.1717C116.198 83.1717 116.345 83.3192 116.345 83.6141C116.64 83.6141 116.64 83.7616 116.345 84.0566C116.345 84.0566 116.198 84.0566 115.903 84.0566ZM117.673 83.1717C117.378 83.1717 117.23 83.1717 117.23 83.1717C117.23 82.8767 117.23 82.5818 117.23 82.2868C117.525 82.2868 117.82 82.2868 118.115 82.2868C118.115 82.5818 117.968 82.8767 117.673 83.1717ZM119 82.2868C119 82.2868 118.852 82.1393 118.557 81.8443C118.557 81.5494 118.705 81.4019 119 81.4019C119 80.9594 119.442 81.4019 119.442 81.4019C119.737 81.6969 119.737 81.8443 119.442 81.8443C119.442 82.1393 119.295 82.2868 119 82.2868ZM120.77 80.9595C120.475 80.9595 120.327 80.9595 120.327 80.9595C120.032 80.6645 120.032 80.3695 120.327 80.0746H120.77C121.065 80.3695 121.065 80.6645 120.77 80.9595ZM122.097 79.6321C121.802 79.6321 121.655 79.6321 121.655 79.6321C121.36 79.3371 121.36 79.0422 121.655 78.7472H122.097C122.392 79.0422 122.539 79.3371 122.539 79.6321H122.097ZM123.424 78.3048C123.129 78.3048 122.982 78.3048 122.982 78.3048C122.687 78.0098 122.687 77.7148 122.982 77.4199H123.424C123.719 77.7148 123.719 78.0098 123.424 78.3048ZM124.309 76.9774C124.014 76.6825 123.867 76.3875 123.867 76.0925C124.309 76.0925 124.309 76.0925 124.752 76.0925C125.047 76.3875 125.047 76.535 124.752 76.535C124.752 76.83 124.604 76.9774 124.309 76.9774ZM125.194 75.2076C124.899 75.2076 124.899 75.0602 125.194 74.7652C125.194 74.4702 125.342 74.3228 125.637 74.3228C125.932 74.6177 125.932 74.9127 125.637 75.2076C125.637 75.2076 125.489 75.2076 125.194 75.2076Z" fill="#FFC800"/>
</g>
<path style="mix-blend-mode:screen" d="M125.637 117.682L123.867 112.815L115.018 85.8263L114.133 83.614L110.593 73.4378C110.298 72.8478 110.003 72.5529 109.708 72.5529C112.806 89.3658 116.788 105.736 120.327 122.107C123.424 121.222 125.637 119.452 125.637 117.682Z" fill="url(#paint28_linear_489_24688)"/>
<path d="M93.338 115.47C93.6329 116.355 94.0754 117.093 94.6653 117.683C94.9603 118.273 95.5502 118.715 96.4351 119.01C97.6149 119.6 99.0898 120.19 100.86 120.78C103.809 121.37 106.759 121.665 109.708 121.665C112.953 121.665 116.05 121.37 119 120.78C120.77 120.485 122.244 119.895 123.424 119.01C124.752 118.568 126.079 117.24 126.521 115.913C126.521 116.798 126.226 117.535 125.637 118.125C125.047 118.715 124.457 119.157 123.867 119.452C122.392 120.337 120.917 120.927 119.442 121.222C116.198 122.107 112.953 122.55 109.708 122.55C106.759 122.55 103.662 122.107 100.417 121.222C98.9423 120.632 97.4675 120.042 95.9926 119.452C95.4027 118.863 94.8128 118.273 94.2228 117.683C93.6329 117.093 93.338 116.355 93.338 115.47Z" fill="#097482"/>
<g style="mix-blend-mode:multiply">
<path d="M110.151 127.859H109.709V123.434H110.151V127.859ZM107.939 127.859C107.939 127.859 107.791 127.859 107.496 127.859L107.939 123.434C107.939 123.434 108.086 123.434 108.381 123.434L107.939 127.859ZM112.363 127.859L111.921 123.434C112.216 123.434 112.511 123.434 112.806 123.434V127.859C112.806 127.859 112.658 127.859 112.363 127.859ZM105.284 127.416C104.989 127.416 104.842 127.416 104.842 127.416L105.284 122.992C105.579 122.992 105.727 122.992 105.727 122.992L105.284 127.416ZM115.018 127.416L114.575 122.992H115.018L115.46 127.416C115.46 127.416 115.313 127.416 115.018 127.416ZM103.072 126.974C102.777 126.974 102.482 126.974 102.187 126.974L103.072 122.55C103.367 122.55 103.662 122.55 103.957 122.55L103.072 126.974ZM117.673 126.974L116.788 122.992C116.788 122.697 116.935 122.55 117.23 122.55L118.115 126.974C117.82 126.974 117.673 126.974 117.673 126.974ZM100.417 126.532C100.122 126.532 99.8272 126.532 99.5323 126.532L100.86 122.107C101.155 122.107 101.302 122.107 101.302 122.107L100.417 126.532ZM120.327 126.532L119 122.55C119.295 122.255 119.59 122.107 119.885 122.107L120.77 126.532C120.77 126.532 120.622 126.532 120.327 126.532ZM98.2049 126.089C97.91 125.794 97.615 125.647 97.32 125.647L99.0898 121.665C99.3848 121.665 99.5323 121.665 99.5323 121.665L98.2049 126.089ZM122.982 126.089L121.212 122.107C121.507 121.812 121.802 121.665 122.097 121.665L123.424 126.089C123.424 126.089 123.277 126.089 122.982 126.089ZM95.9927 125.204C95.6977 125.204 95.4028 125.057 95.1078 124.762L97.32 120.78C97.32 121.075 97.4675 121.222 97.7625 121.222L95.9927 125.204ZM125.194 125.204L123.424 121.222C123.719 120.927 123.867 120.78 123.867 120.78L126.079 124.762C125.784 124.762 125.489 124.909 125.194 125.204ZM93.7805 123.877C93.4855 123.877 93.1905 123.877 92.8956 123.877L95.1078 119.895C95.4028 119.895 95.5502 119.895 95.5502 119.895L93.7805 123.877ZM127.849 123.877L126.079 120.337C126.079 120.042 126.227 119.895 126.521 119.895L128.734 123.877C128.439 123.877 128.144 123.877 127.849 123.877Z" fill="#FFC59C"/>
</g>
<path style="mix-blend-mode:multiply" d="M163.245 79.6325C157.493 109.276 128.291 128.744 98.6473 122.55C68.5609 116.356 49.5357 87.1541 55.2875 57.5101C61.4818 27.8662 90.6833 8.39858 120.327 14.5928C150.414 20.3446 169.439 49.5461 163.245 79.6325Z" fill="url(#paint29_radial_489_24688)"/>
<path style="mix-blend-mode:multiply" d="M164.129 79.6322C157.935 109.719 128.291 129.186 98.2049 122.992C68.1185 116.798 48.6509 87.5963 54.8451 57.5099C61.0394 27.4235 90.2409 7.95591 120.327 13.7077C150.414 19.902 169.881 49.5459 164.129 79.6322Z" fill="url(#paint30_radial_489_24688)"/>
<path d="M119 59.7224C119.885 57.9526 121.065 56.3303 122.539 54.8555C123.424 53.5282 124.752 52.2008 126.521 51.7584L125.637 50.431C124.309 51.7584 122.982 53.0857 121.655 54.4131C120.77 56.1828 119.885 57.9526 119 59.7224Z" fill="#FFCE00"/>
<path d="M118.115 70.3407C119.59 69.4558 121.212 68.5709 122.982 67.686C124.752 67.2435 126.521 66.8011 128.291 67.2435L128.734 66.3586C126.521 65.9162 124.309 66.3586 122.982 67.2435C121.212 68.1284 119.59 69.1608 118.115 70.3407Z" fill="#FF8700"/>
<path d="M107.054 60.6068C106.169 57.9522 105.137 55.5924 103.957 53.5277C102.482 51.168 100.712 49.2507 98.6473 47.7759L98.2049 48.6608C100.27 50.1356 102.039 51.9054 103.514 53.9701C104.989 56.0349 106.169 58.2471 107.054 60.6068Z" fill="#FF8700"/>
<path d="M102.187 68.1289C100.417 66.6541 98.2049 65.6217 95.5502 65.0318C93.1905 64.1469 90.6833 63.7045 88.0286 63.7045L88.4711 65.0318C90.8308 64.7369 93.1905 64.8843 95.5502 65.4743C97.9099 66.0642 100.122 66.9491 102.187 68.1289Z" fill="#FF8700"/>
<path d="M101.302 75.6501C99.8272 75.3551 98.2049 75.3551 96.4351 75.6501C94.9603 75.6501 93.338 76.0925 91.5682 76.9774L92.4531 77.8623C93.6329 77.2724 94.9603 76.6824 96.4351 76.0925C98.2049 75.7975 99.8272 75.6501 101.302 75.6501Z" fill="#FF8700"/>
<path d="M112.363 51.3156C112.363 49.2508 112.658 47.1861 113.248 45.1213C113.543 43.9415 113.838 42.9091 114.133 42.0242C114.428 40.8443 114.723 39.812 115.018 38.9271L114.133 38.4846C113.543 39.6645 113.248 40.6968 113.248 41.5817C112.953 42.7616 112.658 43.9415 112.363 45.1213C112.363 47.1861 112.363 49.2508 112.363 51.3156Z" fill="#FF8700"/>
<path d="M115.018 73.8804C117.083 74.7653 119 75.7976 120.77 76.9775C122.539 78.3048 123.867 80.0746 124.752 82.2869L125.637 81.4019C124.752 79.6322 122.982 77.8624 121.212 76.535C119.147 75.3552 117.083 74.4703 115.018 73.8804Z" fill="#FFCE00"/>
<path d="M106.611 65.9164C104.842 64.1466 103.072 62.6717 101.302 61.4919C99.5323 60.312 97.615 59.2797 95.5502 58.3948L95.1078 59.2797C97.1725 60.1645 99.0898 61.0494 100.86 61.9343C102.924 63.1142 104.842 64.4415 106.611 65.9164Z" fill="#FFFF91"/>
<path d="M111.478 63.262C111.773 60.9023 112.511 58.69 113.691 56.6253C114.575 54.4131 115.903 52.6433 117.673 51.3159L116.788 50.431C115.018 51.7584 113.691 53.9706 112.806 56.1828C111.921 58.5426 111.478 60.9023 111.478 63.262Z" fill="#FF8700"/>
<path d="M114.133 67.6864C115.313 66.5066 116.64 65.4742 118.115 64.5893C119.59 63.4095 121.212 62.8195 122.982 62.8195V61.4922C120.917 61.7872 119.147 62.5246 117.673 63.7044C116.198 64.8843 115.018 66.2116 114.133 67.6864Z" fill="#FFFF91"/>
<path d="M105.284 73.438C104.399 72.848 103.514 72.2581 102.629 71.6682C101.744 71.3732 100.86 71.0782 99.9746 70.7833C97.9099 70.1933 95.9926 69.7509 94.2228 69.4559V70.7833C95.9926 70.7833 97.7624 71.0782 99.5322 71.6682C100.712 71.6682 101.744 71.8156 102.629 72.1106C103.514 72.4056 104.399 72.848 105.284 73.438Z" fill="#FFFF91"/>
<path d="M107.939 73.438C107.349 75.2078 106.759 77.125 106.169 79.1898C105.726 80.9596 105.284 83.1718 105.284 84.9416H106.611C106.169 83.1718 106.611 81.402 106.611 79.1898C106.906 77.42 107.349 75.5027 107.939 73.438Z" fill="#FFFF91"/>
<path d="M122.982 72.9953C124.752 72.7004 126.669 72.7004 128.734 72.9953C130.503 73.2903 131.978 74.1752 133.158 75.65L134.043 74.7651C132.716 73.4378 130.503 72.5529 128.734 72.5529C126.669 72.2579 124.752 72.4054 122.982 72.9953Z" fill="#FFCE00"/>
<path d="M126.964 59.7223C128.144 58.8374 129.471 58.1 130.946 57.5101C132.273 56.6252 134.043 56.6252 135.37 56.6252V55.7403C133.601 55.2979 132.273 55.7403 130.503 56.6252C129.029 57.5101 127.849 58.5425 126.964 59.7223Z" fill="#FFCE00"/>
<path d="M96.8775 53.528C95.4027 52.3481 93.6329 51.3157 91.5682 50.4308C89.7984 49.5459 87.8811 49.1035 85.8164 49.1035V50.4308C87.5862 50.1359 89.5034 50.2833 91.5682 50.8733C93.338 51.7582 95.1078 52.6431 96.8775 53.528Z" fill="#FF8700"/>
<path d="M107.496 47.7759C107.201 46.0061 106.906 44.0888 106.611 42.0241C106.316 41.1392 105.874 40.2543 105.284 39.3694C104.842 38.4845 104.399 37.5996 103.514 36.7147L102.629 38.0421C103.219 38.337 103.809 38.9269 104.399 39.8118C104.989 40.6967 105.432 41.5816 105.726 42.4665C106.611 44.2363 107.201 46.0061 107.496 47.7759Z" fill="#FFCE00"/>
<path d="M101.302 79.6324C99.8272 81.1073 98.4999 82.7296 97.32 84.4994C95.9927 86.2692 95.5502 88.4814 95.1078 90.6936H96.4351C96.4351 88.6289 96.8776 86.7116 97.7625 84.9418C98.6473 82.8771 99.8272 81.1073 101.302 79.6324Z" fill="#FFCE00"/>
<path d="M118.115 81.8446C119.295 83.0245 120.327 84.3518 121.212 85.8266C122.097 87.3015 122.687 88.9237 122.982 90.6935L124.309 90.2511C123.424 88.4813 122.539 86.859 121.655 85.3842C120.475 84.2043 119.295 83.0245 118.115 81.8446Z" fill="#FFCE00"/>
<g style="mix-blend-mode:color-dodge">
<path d="M93.338 43.7941L94.6653 46.4487L92.8955 48.661H95.9927L97.7625 50.4308L98.2049 47.7761L100.86 46.8912L98.6473 45.5639L98.2049 42.9092L95.9927 44.679L93.338 43.7941Z" fill="#FF8700"/>
</g>
<path d="M111.036 55.298L110.151 53.9707V52.6433L108.824 53.0858L107.054 52.6433L107.496 53.9707L106.169 55.298L107.939 55.7405L108.824 57.0678L109.709 55.7405L111.036 55.298Z" fill="#FFFF91"/>
<path d="M121.212 49.5461H119.442L118.557 48.2188L118.115 49.9885L116.788 50.431L118.115 51.3159V52.6432L119.442 51.7583L120.77 52.2008L120.327 50.8734L121.212 49.5461Z" fill="#FFFF91"/>
<g style="mix-blend-mode:color-dodge">
<path d="M132.716 49.1035L130.946 48.661L130.061 46.8912L129.176 48.661L126.964 49.1035L128.291 50.4308L127.849 52.2006L130.061 51.3157L131.831 52.643L131.388 50.4308L132.716 49.1035Z" fill="#FF8700"/>
</g>
<g style="mix-blend-mode:color-dodge">
<path d="M90.2408 81.4023V83.1721L88.9135 84.057L90.6833 84.4995L91.1257 86.2692L92.0106 84.9419H93.7804L92.8955 83.6146L93.338 81.8448L91.5682 82.2873L90.2408 81.4023Z" fill="#FF8700"/>
</g>
<g style="mix-blend-mode:color-dodge">
<path d="M106.169 87.1538L105.727 89.366L103.957 90.6934L106.169 91.5783L106.611 93.3481L107.939 91.5783L110.151 92.0207L108.824 90.2509L109.709 88.0387L107.496 88.4811L106.169 87.1538Z" fill="#FF8700"/>
</g>
<path d="M128.291 83.6145V84.4994H127.406L127.849 84.9419V85.8267L128.734 85.3843L129.176 85.8267V84.9419L129.619 84.4994H128.734L128.291 83.6145Z" fill="#FF8700"/>
<g style="mix-blend-mode:color-dodge">
<path d="M116.788 33.6178L115.903 35.3876H113.691L115.018 37.1574V38.9271L116.788 38.0423L118.557 38.9271L118.115 37.1574L119.885 35.83L117.673 35.3876L116.788 33.6178Z" fill="#FF8700"/>
</g>
<g style="mix-blend-mode:color-dodge">
<path d="M118.557 69.4559L118.115 71.2257L116.788 72.1106L118.115 72.9955L118.557 74.3228L119.442 73.438H121.212L120.327 72.1106L121.212 70.7833H119.442L118.557 69.4559Z" fill="#FF8700"/>
</g>
<g style="mix-blend-mode:color-dodge">
<path d="M134.043 61.9346V63.2619L132.716 63.7044L134.043 64.1468V65.4742L134.928 64.5893H136.255L135.37 63.7044L136.255 62.377L134.928 62.8195L134.043 61.9346Z" fill="#FF8700"/>
</g>
<g style="mix-blend-mode:color-dodge">
<path d="M80.9495 54.8555L81.3919 56.6253L80.507 57.9526L82.2768 58.3951L83.1617 59.7224L83.6042 57.9526L85.3739 57.5101L84.0466 56.6253V54.8555L82.7193 55.7404L80.9495 54.8555Z" fill="#FF8700"/>
</g>
<path d="M112.806 65.4743H110.593L109.266 63.7045L108.381 65.9167L106.169 66.8016L108.381 68.1289V70.7836L110.151 69.0138L112.363 69.8987L111.478 67.6865L112.806 65.4743Z" fill="#FFFF91"/>
<g style="mix-blend-mode:color-dodge">
<path d="M88.4711 72.9955L90.6833 73.438L91.5682 75.2078L92.4531 73.438L94.6653 72.9955L92.8956 71.2258L93.338 69.0135L91.5682 70.3409L89.356 69.456L89.7984 71.6682L88.4711 72.9955Z" fill="#FF8700"/>
</g>
<g style="mix-blend-mode:color-dodge">
<path d="M138.025 75.2079L136.255 76.5352L134.486 75.6504L134.928 77.4201L133.601 78.7475L135.37 79.1899L136.255 80.9597L137.14 79.1899L139.352 78.7475L137.583 77.4201L138.025 75.2079Z" fill="#FF8700"/>
</g>
<path style="mix-blend-mode:screen" d="M163.245 79.6325C157.493 109.276 128.291 128.744 98.6473 122.55C68.5609 116.356 49.5357 87.1541 55.2875 57.5101C61.4818 27.8662 90.6833 8.39858 120.327 14.5928C150.414 20.3446 169.439 49.5461 163.245 79.6325Z" fill="url(#paint31_radial_489_24688)"/>
<path style="mix-blend-mode:screen" d="M104.842 48.6607C103.957 53.5277 99.0897 56.6248 94.6653 55.2974C90.2408 54.4125 87.1437 49.9881 88.0286 45.5636C88.9135 40.6967 93.3379 37.5996 98.2049 38.9269C102.629 39.8118 105.726 44.2363 104.842 48.6607Z" fill="url(#paint32_radial_489_24688)"/>
<path style="mix-blend-mode:screen" d="M128.291 38.9273C126.964 46.0064 120.77 49.9884 113.691 48.6611C107.054 47.3338 103.072 40.6971 104.399 34.0604C105.726 27.4237 111.921 22.9992 119 24.3265C125.637 26.0963 129.619 32.2906 128.291 38.9273Z" fill="url(#paint33_radial_489_24688)"/>
<path style="mix-blend-mode:screen" d="M138.025 50.8732C137.14 55.7402 132.716 58.3948 128.291 57.5099C123.424 56.6251 120.327 52.2006 121.655 47.3337C122.539 42.9092 126.964 39.8121 131.388 40.697C136.255 41.5819 139.352 46.4488 138.025 50.8732Z" fill="url(#paint34_radial_489_24688)"/>
<defs>
<radialGradient id="paint0_radial_489_24688" cx="0" cy="0" r="1" gradientUnits="userSpaceOnUse" gradientTransform="translate(81.9878 59.0657) rotate(2.62265) scale(43.1598 43.1598)">
<stop stop-color="#FFD88A"/>
<stop offset="0.225" stop-color="#FFECC7"/>
<stop offset="0.494" stop-color="#FFF5E2"/>
<stop offset="0.714" stop-color="#FFFBF3"/>
<stop offset="1" stop-color="white"/>
</radialGradient>
<radialGradient id="paint1_radial_489_24688" cx="0" cy="0" r="1" gradientUnits="userSpaceOnUse" gradientTransform="translate(81.9879 59.0655) rotate(2.62056) scale(42.7254 42.7254)">
<stop stop-color="white"/>
<stop offset="0.056" stop-color="#FFAA00"/>
<stop offset="0.255" stop-color="#8E5F00"/>
<stop offset="0.393" stop-color="#704B00"/>
<stop offset="0.525" stop-color="#503600"/>
<stop offset="0.617" stop-color="#3D2900"/>
<stop offset="0.74" stop-color="#231700"/>
<stop offset="0.847" stop-color="#120C00"/>
<stop offset="1"/>
</radialGradient>
<radialGradient id="paint2_radial_489_24688" cx="0" cy="0" r="1" gradientUnits="userSpaceOnUse" gradientTransform="translate(68.8194 63.6859) rotate(2.6286) scale(13.4732)">
<stop stop-color="white"/>
<stop offset="0.067" stop-color="#FFAA00"/>
<stop offset="0.201" stop-color="#8E5F00"/>
<stop offset="0.469" stop-color="#120C00"/>
<stop offset="1"/>
</radialGradient>
<radialGradient id="paint3_radial_489_24688" cx="0" cy="0" r="1" gradientUnits="userSpaceOnUse" gradientTransform="translate(59.6424 53.3292) rotate(2.62046) scale(6.6329)">
<stop stop-color="white"/>
<stop offset="0.067" stop-color="#FFAA00"/>
<stop offset="0.201" stop-color="#8E5F00"/>
<stop offset="0.469" stop-color="#120C00"/>
<stop offset="1"/>
</radialGradient>
<radialGradient id="paint4_radial_489_24688" cx="0" cy="0" r="1" gradientUnits="userSpaceOnUse" gradientTransform="translate(69.4565 44.2512) rotate(2.62045) scale(6.6329)">
<stop stop-color="white"/>
<stop offset="0.067" stop-color="#FFAA00"/>
<stop offset="0.201" stop-color="#8E5F00"/>
<stop offset="0.469" stop-color="#120C00"/>
<stop offset="1"/>
</radialGradient>
<radialGradient id="paint5_radial_489_24688" cx="0" cy="0" r="1" gradientUnits="userSpaceOnUse" gradientTransform="translate(83.5139 33.841) rotate(2.62186) scale(9.5769 9.5769)">
<stop stop-color="white"/>
<stop offset="0.067" stop-color="#FFAA00"/>
<stop offset="0.201" stop-color="#8E5F00"/>
<stop offset="0.469" stop-color="#120C00"/>
<stop offset="1"/>
</radialGradient>
<radialGradient id="paint6_radial_489_24688" cx="0" cy="0" r="1" gradientUnits="userSpaceOnUse" gradientTransform="translate(90.121 60.5656) rotate(2.62186) scale(9.5769)">
<stop stop-color="white"/>
<stop offset="0.067" stop-color="#FFAA00"/>
<stop offset="0.201" stop-color="#8E5F00"/>
<stop offset="0.469" stop-color="#120C00"/>
<stop offset="1"/>
</radialGradient>
<radialGradient id="paint7_radial_489_24688" cx="0" cy="0" r="1" gradientUnits="userSpaceOnUse" gradientTransform="translate(83.0202 75.5217) rotate(2.62954) scale(9.58302)">
<stop stop-color="white"/>
<stop offset="0.067" stop-color="#FFAA00"/>
<stop offset="0.201" stop-color="#8E5F00"/>
<stop offset="0.469" stop-color="#120C00"/>
<stop offset="1"/>
</radialGradient>
<radialGradient id="paint8_radial_489_24688" cx="0" cy="0" r="1" gradientUnits="userSpaceOnUse" gradientTransform="translate(95.3421 41.8475) rotate(2.62046) scale(6.6329 6.6329)">
<stop stop-color="white"/>
<stop offset="0.067" stop-color="#FFAA00"/>
<stop offset="0.201" stop-color="#8E5F00"/>
<stop offset="0.469" stop-color="#120C00"/>
<stop offset="1"/>
</radialGradient>
<radialGradient id="paint9_radial_489_24688" cx="0" cy="0" r="1" gradientUnits="userSpaceOnUse" gradientTransform="translate(70.2311 72.8703) rotate(2.62045) scale(6.6329)">
<stop stop-color="white"/>
<stop offset="0.067" stop-color="#FFAA00"/>
<stop offset="0.201" stop-color="#8E5F00"/>
<stop offset="0.469" stop-color="#120C00"/>
<stop offset="1"/>
</radialGradient>
<radialGradient id="paint10_radial_489_24688" cx="0" cy="0" r="1" gradientUnits="userSpaceOnUse" gradientTransform="translate(103.844 63.0413) rotate(2.62045) scale(6.6329)">
<stop stop-color="white"/>
<stop offset="0.067" stop-color="#FFAA00"/>
<stop offset="0.201" stop-color="#8E5F00"/>
<stop offset="0.469" stop-color="#120C00"/>
<stop offset="1"/>
</radialGradient>
<radialGradient id="paint11_radial_489_24688" cx="0" cy="0" r="1" gradientUnits="userSpaceOnUse" gradientTransform="translate(100.766 51.3724) rotate(2.62046) scale(6.6329 6.6329)">
<stop stop-color="white"/>
<stop offset="0.067" stop-color="#FFAA00"/>
<stop offset="0.201" stop-color="#8E5F00"/>
<stop offset="0.469" stop-color="#120C00"/>
<stop offset="1"/>
</radialGradient>
<radialGradient id="paint12_radial_489_24688" cx="0" cy="0" r="1" gradientUnits="userSpaceOnUse" gradientTransform="translate(59.0447 72.4334) rotate(-26.96) scale(43.1564 43.1564)">
<stop stop-color="#FFD88A"/>
<stop offset="0.225" stop-color="#FFECC7"/>
<stop offset="0.494" stop-color="#FFF5E2"/>
<stop offset="0.714" stop-color="#FFFBF3"/>
<stop offset="1" stop-color="white"/>
</radialGradient>
<radialGradient id="paint13_radial_489_24688" cx="0" cy="0" r="1" gradientUnits="userSpaceOnUse" gradientTransform="translate(59.0409 72.4355) rotate(-26.9596) scale(42.7264 42.7264)">
<stop stop-color="white"/>
<stop offset="0.056" stop-color="#FFAA00"/>
<stop offset="0.255" stop-color="#8E5F00"/>
<stop offset="0.393" stop-color="#704B00"/>
<stop offset="0.525" stop-color="#503600"/>
<stop offset="0.617" stop-color="#3D2900"/>
<stop offset="0.74" stop-color="#231700"/>
<stop offset="0.847" stop-color="#120C00"/>
<stop offset="1"/>
</radialGradient>
<radialGradient id="paint14_radial_489_24688" cx="0" cy="0" r="1" gradientUnits="userSpaceOnUse" gradientTransform="translate(49.8664 82.9547) rotate(-26.9621) scale(13.4722 13.4722)">
<stop stop-color="white"/>
<stop offset="0.067" stop-color="#FFAA00"/>
<stop offset="0.201" stop-color="#8E5F00"/>
<stop offset="0.469" stop-color="#120C00"/>
<stop offset="1"/>
</radialGradient>
<radialGradient id="paint15_radial_489_24688" cx="0" cy="0" r="1" gradientUnits="userSpaceOnUse" gradientTransform="translate(36.7782 78.4807) rotate(-26.9442) scale(6.63205)">
<stop stop-color="white"/>
<stop offset="0.067" stop-color="#FFAA00"/>
<stop offset="0.201" stop-color="#8E5F00"/>
<stop offset="0.469" stop-color="#120C00"/>
<stop offset="1"/>
</radialGradient>
<radialGradient id="paint16_radial_489_24688" cx="0" cy="0" r="1" gradientUnits="userSpaceOnUse" gradientTransform="translate(40.832 65.7435) rotate(-26.9442) scale(6.63205)">
<stop stop-color="white"/>
<stop offset="0.067" stop-color="#FFAA00"/>
<stop offset="0.201" stop-color="#8E5F00"/>
<stop offset="0.469" stop-color="#120C00"/>
<stop offset="1"/>
</radialGradient>
<radialGradient id="paint17_radial_489_24688" cx="0" cy="0" r="1" gradientUnits="userSpaceOnUse" gradientTransform="translate(47.9163 49.7486) rotate(-26.9649) scale(9.57991 9.57991)">
<stop stop-color="white"/>
<stop offset="0.067" stop-color="#FFAA00"/>
<stop offset="0.201" stop-color="#8E5F00"/>
<stop offset="0.469" stop-color="#120C00"/>
<stop offset="1"/>
</radialGradient>
<radialGradient id="paint18_radial_489_24688" cx="0" cy="0" r="1" gradientUnits="userSpaceOnUse" gradientTransform="translate(66.8539 69.7266) rotate(-26.9649) scale(9.57991 9.57991)">
<stop stop-color="white"/>
<stop offset="0.067" stop-color="#FFAA00"/>
<stop offset="0.201" stop-color="#8E5F00"/>
<stop offset="0.469" stop-color="#120C00"/>
<stop offset="1"/>
</radialGradient>
<radialGradient id="paint19_radial_489_24688" cx="0" cy="0" r="1" gradientUnits="userSpaceOnUse" gradientTransform="translate(68.0665 86.2359) rotate(-26.9649) scale(9.57991 9.57991)">
<stop stop-color="white"/>
<stop offset="0.067" stop-color="#FFAA00"/>
<stop offset="0.201" stop-color="#8E5F00"/>
<stop offset="0.469" stop-color="#120C00"/>
<stop offset="1"/>
</radialGradient>
<radialGradient id="paint20_radial_489_24688" cx="0" cy="0" r="1" gradientUnits="userSpaceOnUse" gradientTransform="translate(62.1561 50.8713) rotate(-26.9442) scale(6.63205 6.63205)">
<stop stop-color="white"/>
<stop offset="0.067" stop-color="#FFAA00"/>
<stop offset="0.201" stop-color="#8E5F00"/>
<stop offset="0.469" stop-color="#120C00"/>
<stop offset="1"/>
</radialGradient>
<radialGradient id="paint21_radial_489_24688" cx="0" cy="0" r="1" gradientUnits="userSpaceOnUse" gradientTransform="translate(55.631 90.2441) rotate(-26.9442) scale(6.63205)">
<stop stop-color="white"/>
<stop offset="0.067" stop-color="#FFAA00"/>
<stop offset="0.201" stop-color="#8E5F00"/>
<stop offset="0.469" stop-color="#120C00"/>
<stop offset="1"/>
</radialGradient>
<radialGradient id="paint22_radial_489_24688" cx="0" cy="0" r="1" gradientUnits="userSpaceOnUse" gradientTransform="translate(80.0125 65.1078) rotate(-26.9442) scale(6.63205)">
<stop stop-color="white"/>
<stop offset="0.067" stop-color="#FFAA00"/>
<stop offset="0.201" stop-color="#8E5F00"/>
<stop offset="0.469" stop-color="#120C00"/>
<stop offset="1"/>
</radialGradient>
<radialGradient id="paint23_radial_489_24688" cx="0" cy="0" r="1" gradientUnits="userSpaceOnUse" gradientTransform="translate(71.574 56.4727) rotate(-26.9442) scale(6.63205 6.63205)">
<stop stop-color="white"/>
<stop offset="0.067" stop-color="#FFAA00"/>
<stop offset="0.201" stop-color="#8E5F00"/>
<stop offset="0.469" stop-color="#120C00"/>
<stop offset="1"/>
</radialGradient>
<linearGradient id="paint24_linear_489_24688" x1="107.147" y1="138.969" x2="107.613" y2="115.692" gradientUnits="userSpaceOnUse">
<stop stop-color="#FF6A00"/>
<stop offset="1" stop-color="white"/>
</linearGradient>
<linearGradient id="paint25_linear_489_24688" x1="88.3604" y1="126.496" x2="86.84" y2="86.1981" gradientUnits="userSpaceOnUse">
<stop stop-color="#00B3FF"/>
<stop offset="0.209" stop-color="#6BD3FF"/>
<stop offset="0.368" stop-color="#ABE6FF"/>
<stop offset="0.703" stop-color="#E9F8FF"/>
<stop offset="1" stop-color="white"/>
</linearGradient>
<linearGradient id="paint26_linear_489_24688" x1="109.182" y1="92.1049" x2="109.029" y2="79.8359" gradientUnits="userSpaceOnUse">
<stop stop-color="#FF6A00"/>
<stop offset="1" stop-color="white"/>
</linearGradient>
<linearGradient id="paint27_linear_489_24688" x1="182.668" y1="40.8074" x2="198.711" y2="116.576" gradientUnits="userSpaceOnUse">
<stop stop-color="white"/>
<stop offset="1"/>
</linearGradient>
<linearGradient id="paint28_linear_489_24688" x1="208.233" y1="107.701" x2="172.218" y2="151.517" gradientUnits="userSpaceOnUse">
<stop stop-color="white"/>
<stop offset="1"/>
</linearGradient>
<radialGradient id="paint29_radial_489_24688" cx="0" cy="0" r="1" gradientUnits="userSpaceOnUse" gradientTransform="translate(109.408 68.4961) rotate(11.4687) scale(55.1188 55.1188)">
<stop stop-color="white"/>
<stop offset="0.056" stop-color="#FFC654"/>
<stop offset="0.203" stop-color="#FFDA91"/>
<stop offset="0.346" stop-color="#FFE7B7"/>
<stop offset="0.528" stop-color="#FFF3DB"/>
<stop offset="0.736" stop-color="#FFFCF6"/>
<stop offset="1" stop-color="white"/>
</radialGradient>
<radialGradient id="paint30_radial_489_24688" cx="0" cy="0" r="1" gradientUnits="userSpaceOnUse" gradientTransform="translate(109.408 68.4959) rotate(11.468) scale(55.6785 55.6785)">
<stop stop-color="#FFD88A"/>
<stop offset="0.225" stop-color="#FFECC7"/>
<stop offset="0.494" stop-color="#FFF5E2"/>
<stop offset="0.714" stop-color="#FFFBF3"/>
<stop offset="1" stop-color="white"/>
</radialGradient>
<radialGradient id="paint31_radial_489_24688" cx="0" cy="0" r="1" gradientUnits="userSpaceOnUse" gradientTransform="translate(109.408 68.4961) rotate(11.4687) scale(55.1188 55.1188)">
<stop stop-color="white"/>
<stop offset="0.056" stop-color="#FFAA00"/>
<stop offset="0.255" stop-color="#8E5F00"/>
<stop offset="0.393" stop-color="#704B00"/>
<stop offset="0.525" stop-color="#503600"/>
<stop offset="0.617" stop-color="#3D2900"/>
<stop offset="0.74" stop-color="#231700"/>
<stop offset="0.847" stop-color="#120C00"/>
<stop offset="1"/>
</radialGradient>
<radialGradient id="paint32_radial_489_24688" cx="0" cy="0" r="1" gradientUnits="userSpaceOnUse" gradientTransform="translate(96.3776 47.1255) rotate(11.4552) scale(8.55477 8.55476)">
<stop stop-color="white"/>
<stop offset="0.067" stop-color="#FFAA00"/>
<stop offset="0.201" stop-color="#8E5F00"/>
<stop offset="0.469" stop-color="#120C00"/>
<stop offset="1"/>
</radialGradient>
<radialGradient id="paint33_radial_489_24688" cx="0" cy="0" r="1" gradientUnits="userSpaceOnUse" gradientTransform="translate(116.354 36.6398) rotate(11.4587) scale(12.3606 12.3606)">
<stop stop-color="white"/>
<stop offset="0.067" stop-color="#FFAA00"/>
<stop offset="0.201" stop-color="#8E5F00"/>
<stop offset="0.469" stop-color="#120C00"/>
<stop offset="1"/>
</radialGradient>
<radialGradient id="paint34_radial_489_24688" cx="0" cy="0" r="1" gradientUnits="userSpaceOnUse" gradientTransform="translate(129.844 49.1964) rotate(11.4842) scale(8.55565 8.55564)">
<stop stop-color="white"/>
<stop offset="0.067" stop-color="#FFAA00"/>
<stop offset="0.201" stop-color="#8E5F00"/>
<stop offset="0.469" stop-color="#120C00"/>
<stop offset="1"/>
</radialGradient>
</defs>
</svg>
